<svg width="1323" height="592" viewBox="0 0 1323 592" fill="none" xmlns="http://www.w3.org/2000/svg">
<rect x="0.599609" y="0.488281" width="1322" height="591" fill="#313335"/>
<rect x="9.59961" y="9.49023" width="1304" height="573" rx="7" fill="#4B4F53"/>
<path d="M141.306 586.988L5.09961 450.782V406.941L185.147 586.988H141.306ZM5.09961 275.041V231.201L360.887 586.988H317.047L5.09961 275.041ZM5.09961 55.4625L536.625 586.988H492.785L5.09961 99.3031V55.4625ZM130.366 4.98828L712.366 586.988H668.525L86.525 4.98828H130.366ZM844.263 586.988L262.263 4.98828H306.104L888.104 586.988H844.263ZM481.844 4.98828L1063.84 586.988H1020L438.004 4.98828H481.844ZM1195.74 586.988L613.742 4.98828H657.582L1239.58 586.988H1195.74ZM833.323 4.98828L1318.1 489.765V533.606L789.482 4.98828H833.323ZM1009.06 4.98828L1318.1 314.027V357.867L965.22 4.98828H1009.06ZM1184.8 4.98828L1318.1 138.287V182.127L1140.96 4.98828H1184.8Z" fill="#6D7379" stroke="#313335" stroke-width="9"/>
</svg>
