<svg width="1558" height="2203" viewBox="0 0 1558 2203" fill="none" xmlns="http://www.w3.org/2000/svg">
<path d="M1549.74 2115.39L1554.67 2110.37L1555.88 2105.18L1557.7 2101.2V2093.5L1555.21 2089.19V2081.94L1552.25 2074.56L1545.07 2072.49L1539.73 2067.12L1533.4 2066.69L1526.22 2065.56L1516.7 2067.12L1510.3 2069.72L1508.49 2073.61L1503.5 2076.88L1498.56 2087.02L1500.91 2095.36L1498.56 2103.53L1499.96 2110.37L1503.5 2115.39L1510.3 2118.34L1516.43 2117.34L1522.56 2118.34L1528.95 2117.39L1534.56 2116.43L1542.12 2117.39L1549.74 2115.39Z" fill="url(#paint0_radial_959_33656)"/>
<path d="M1505.17 2113.7C1505.17 2112.04 1506.52 2110.7 1508.17 2110.7H1550.89C1552.55 2110.7 1553.89 2112.04 1553.89 2113.7V2142.5H1505.17V2113.7Z" fill="#402F26"/>
<path d="M1517.21 2129.7C1517.21 2125.84 1520.35 2122.7 1524.21 2122.7H1534.85C1538.71 2122.7 1541.85 2125.84 1541.85 2129.7V2142.5H1517.21V2129.7Z" fill="#A98370"/>
<path d="M0.0078125 2142.5H1553.89V2191C1553.89 2197.63 1548.52 2203 1541.89 2203H12.0078C5.38042 2203 0.0078125 2197.63 0.0078125 2191V2142.5Z" fill="#452E21"/>
<rect x="14.3672" y="2154.5" width="1525.16" height="36.5" rx="7" fill="#D6B8A9"/>
<rect x="0.0078125" y="1075" width="125.43" height="125" fill="#5E2608"/>
<rect x="12.0488" y="1081" width="107.368" height="113" rx="7" fill="#E25B12"/>
<rect x="0.0078125" y="1325" width="125.43" height="125" fill="#5E2608"/>
<rect x="12.0488" y="1331" width="107.368" height="113" rx="7" fill="#E25B12"/>
<rect x="0.0078125" y="1575" width="125.43" height="125" fill="#5E2608"/>
<rect x="12.0488" y="1581" width="107.368" height="113" rx="7" fill="#E25B12"/>
<rect x="0.0078125" y="1200" width="125.43" height="125" fill="#5E2608"/>
<rect x="12.0488" y="1206" width="107.368" height="113" rx="7" fill="#D95712"/>
<rect x="0.0078125" y="1450" width="125.43" height="125" fill="#5E2608"/>
<rect x="12.0488" y="1456" width="107.368" height="113" rx="7" fill="#D95712"/>
<rect x="125.438" y="1075" width="125.43" height="125" fill="#5E2608"/>
<rect x="131.459" y="1081" width="113.389" height="113" rx="7" fill="#D95712"/>
<rect x="125.438" y="1325" width="125.43" height="125" fill="#5E2608"/>
<rect x="131.459" y="1331" width="113.389" height="113" rx="7" fill="#D95712"/>
<rect x="125.438" y="1575" width="125.43" height="125" fill="#5E2608"/>
<rect x="131.459" y="1581" width="113.389" height="113" rx="7" fill="#D95712"/>
<rect x="125.438" y="1200" width="125.43" height="125" fill="#5E2608"/>
<rect x="131.459" y="1206" width="113.389" height="113" rx="7" fill="#E25B12"/>
<rect x="125.438" y="1450" width="125.43" height="125" fill="#5E2608"/>
<rect x="131.459" y="1456" width="113.389" height="113" rx="7" fill="#E25B12"/>
<rect x="376.299" y="1075" width="125.43" height="125" fill="#5E2608"/>
<rect x="382.318" y="1081" width="113.389" height="113" rx="7" fill="#D95712"/>
<rect x="376.299" y="1325" width="125.43" height="125" fill="#5E2608"/>
<rect x="382.318" y="1331" width="113.389" height="113" rx="7" fill="#D95712"/>
<rect x="376.299" y="1575" width="125.43" height="125" fill="#5E2608"/>
<rect x="382.318" y="1581" width="113.389" height="113" rx="7" fill="#D95712"/>
<rect x="376.299" y="1200" width="125.43" height="125" fill="#5E2608"/>
<rect x="382.318" y="1206" width="113.389" height="113" rx="7" fill="#E25B12"/>
<rect x="376.299" y="1450" width="125.43" height="125" fill="#5E2608"/>
<rect x="382.318" y="1456" width="113.389" height="113" rx="7" fill="#E25B12"/>
<rect x="627.158" y="1075" width="125.43" height="125" fill="#5E2608"/>
<rect x="633.178" y="1081" width="113.389" height="113" rx="7" fill="#D95712"/>
<rect x="627.158" y="1325" width="125.43" height="125" fill="#5E2608"/>
<rect x="633.178" y="1331" width="113.389" height="113" rx="7" fill="#D95712"/>
<rect x="627.158" y="1575" width="125.43" height="125" fill="#5E2608"/>
<rect x="633.178" y="1581" width="113.389" height="113" rx="7" fill="#D95712"/>
<rect x="627.158" y="1200" width="125.43" height="125" fill="#5E2608"/>
<rect x="633.178" y="1206" width="113.389" height="113" rx="7" fill="#E25B12"/>
<rect x="627.158" y="1450" width="125.43" height="125" fill="#5E2608"/>
<rect x="633.178" y="1456" width="113.389" height="113" rx="7" fill="#E25B12"/>
<rect x="250.869" y="1075" width="125.43" height="125" fill="#5E2608"/>
<rect x="256.891" y="1081" width="113.389" height="113" rx="7" fill="#E25B12"/>
<rect x="250.869" y="1325" width="125.43" height="125" fill="#5E2608"/>
<rect x="256.891" y="1331" width="113.389" height="113" rx="7" fill="#E25B12"/>
<rect x="250.869" y="1575" width="125.43" height="125" fill="#5E2608"/>
<rect x="256.891" y="1581" width="113.389" height="113" rx="7" fill="#E25B12"/>
<rect x="250.869" y="1200" width="125.43" height="125" fill="#5E2608"/>
<rect x="256.891" y="1206" width="113.389" height="113" rx="7" fill="#D95712"/>
<rect x="250.869" y="1450" width="125.43" height="125" fill="#5E2608"/>
<rect x="256.891" y="1456" width="113.389" height="113" rx="7" fill="#D95712"/>
<rect x="501.729" y="1075" width="125.43" height="125" fill="#5E2608"/>
<rect x="507.75" y="1081" width="113.389" height="113" rx="7" fill="#E25B12"/>
<rect x="501.729" y="1325" width="125.43" height="125" fill="#5E2608"/>
<rect x="507.75" y="1331" width="113.389" height="113" rx="7" fill="#E25B12"/>
<rect x="501.729" y="1575" width="125.43" height="125" fill="#5E2608"/>
<rect x="507.75" y="1581" width="113.389" height="113" rx="7" fill="#E25B12"/>
<rect x="501.729" y="1200" width="125.43" height="125" fill="#5E2608"/>
<rect x="507.75" y="1206" width="113.389" height="113" rx="7" fill="#D95712"/>
<rect x="501.729" y="1450" width="125.43" height="125" fill="#5E2608"/>
<rect x="507.75" y="1456" width="113.389" height="113" rx="7" fill="#D95712"/>
<rect x="752.59" y="1075" width="125.43" height="125" fill="#5E2608"/>
<rect x="758.611" y="1081" width="113.389" height="113" rx="7" fill="#E25B12"/>
<rect x="752.59" y="1325" width="125.43" height="125" fill="#5E2608"/>
<rect x="758.611" y="1331" width="113.389" height="113" rx="7" fill="#E25B12"/>
<rect x="752.59" y="1575" width="125.43" height="125" fill="#5E2608"/>
<rect x="758.611" y="1581" width="113.389" height="113" rx="7" fill="#E25B12"/>
<rect x="752.59" y="1200" width="125.43" height="125" fill="#5E2608"/>
<rect x="758.611" y="1206" width="113.389" height="113" rx="7" fill="#D95712"/>
<rect x="752.59" y="1450" width="125.43" height="125" fill="#5E2608"/>
<rect x="758.611" y="1456" width="113.389" height="113" rx="7" fill="#D95712"/>
<path d="M0.0078125 637.002C0.0078125 630.375 5.3804 625.002 12.0078 625.002H125.438L125.438 715.002H0.0078125L0.0078125 637.002Z" fill="#5E2608"/>
<rect x="12.0527" y="637.004" width="107.368" height="72.0051" rx="7" fill="#CB5110"/>
<rect x="0.0078125" y="715.002" width="125.43" height="90" fill="#5E2608"/>
<rect x="12.0527" y="720.998" width="107.368" height="78.0038" rx="7" fill="#D45511"/>
<rect x="0.0078125" y="895.002" width="125.43" height="90" fill="#5E2608"/>
<rect x="12.0527" y="900.998" width="107.368" height="78.0038" rx="7" fill="#D45511"/>
<rect x="0.0078125" y="805.002" width="125.43" height="90" fill="#5E2608"/>
<rect x="12.0527" y="810.998" width="107.368" height="78.0038" rx="7" fill="#CB5110"/>
<rect x="0.0078125" y="985.002" width="125.43" height="90" fill="#5E2608"/>
<rect x="12.0527" y="990.998" width="107.368" height="78.0038" rx="7" fill="#CB5110"/>
<rect x="125.438" y="625.002" width="125.43" height="90" fill="#5E2608"/>
<rect x="131.459" y="637.004" width="113.389" height="71.9951" rx="7" fill="#D45511"/>
<rect x="125.438" y="625.002" width="125.43" height="90" fill="#5E2608"/>
<rect x="131.459" y="637.004" width="113.389" height="72.0051" rx="7" fill="#D45511"/>
<rect x="125.438" y="715.002" width="125.43" height="90" fill="#5E2608"/>
<rect x="131.459" y="720.998" width="113.389" height="78.0038" rx="7" fill="#CB5110"/>
<rect x="125.438" y="895.002" width="125.43" height="90" fill="#5E2608"/>
<rect x="131.459" y="900.998" width="113.389" height="78.0038" rx="7" fill="#CB5110"/>
<rect x="125.438" y="805.002" width="125.43" height="90" fill="#5E2608"/>
<rect x="131.459" y="810.998" width="113.389" height="78.0038" rx="7" fill="#D45511"/>
<rect x="125.438" y="985.002" width="125.43" height="90" fill="#5E2608"/>
<rect x="131.459" y="990.998" width="113.389" height="78.0038" rx="7" fill="#D45511"/>
<rect x="376.299" y="625.002" width="125.43" height="90" fill="#5E2608"/>
<rect x="382.318" y="637.004" width="113.389" height="72.0051" rx="7" fill="#D45511"/>
<rect x="376.299" y="715.002" width="125.43" height="90" fill="#5E2608"/>
<rect x="382.318" y="720.998" width="113.389" height="78.0038" rx="7" fill="#CB5110"/>
<rect x="376.299" y="895.002" width="125.43" height="90" fill="#5E2608"/>
<rect x="382.318" y="900.998" width="113.389" height="78.0038" rx="7" fill="#CB5110"/>
<rect x="376.299" y="805.002" width="125.43" height="90" fill="#5E2608"/>
<rect x="382.318" y="810.998" width="113.389" height="78.0038" rx="7" fill="#D45511"/>
<rect x="376.299" y="985.002" width="125.43" height="90" fill="#5E2608"/>
<rect x="382.318" y="990.998" width="113.389" height="78.0038" rx="7" fill="#D45511"/>
<rect x="627.158" y="625.002" width="125.43" height="90" fill="#5E2608"/>
<rect x="633.178" y="637.004" width="113.389" height="72.0051" rx="7" fill="#D45511"/>
<rect x="627.158" y="715.002" width="125.43" height="90" fill="#5E2608"/>
<rect x="633.178" y="720.998" width="113.389" height="78.0038" rx="7" fill="#CB5110"/>
<rect x="627.158" y="895.002" width="125.43" height="90" fill="#5E2608"/>
<rect x="633.178" y="900.998" width="113.389" height="78.0038" rx="7" fill="#CB5110"/>
<rect x="627.158" y="805.002" width="125.43" height="90" fill="#5E2608"/>
<rect x="633.178" y="810.998" width="113.389" height="78.0038" rx="7" fill="#D45511"/>
<rect x="627.158" y="985.002" width="125.43" height="90" fill="#5E2608"/>
<rect x="633.178" y="990.998" width="113.389" height="78.0038" rx="7" fill="#D45511"/>
<rect x="250.869" y="625.002" width="125.43" height="90" fill="#5E2608"/>
<rect x="256.889" y="637.004" width="113.389" height="71.9951" rx="7" fill="#CB5110"/>
<rect x="250.869" y="625.002" width="125.43" height="90" fill="#5E2608"/>
<rect x="256.889" y="637.004" width="113.389" height="72.0051" rx="7" fill="#CB5110"/>
<rect x="250.869" y="715.002" width="125.43" height="90" fill="#5E2608"/>
<rect x="256.889" y="720.998" width="113.389" height="78.0038" rx="7" fill="#D45511"/>
<rect x="250.869" y="895.002" width="125.43" height="90" fill="#5E2608"/>
<rect x="256.889" y="900.998" width="113.389" height="78.0038" rx="7" fill="#D45511"/>
<rect x="250.869" y="805.002" width="125.43" height="90" fill="#5E2608"/>
<rect x="256.889" y="810.998" width="113.389" height="78.0038" rx="7" fill="#CB5110"/>
<rect x="250.869" y="985.002" width="125.43" height="90" fill="#5E2608"/>
<rect x="256.889" y="990.998" width="113.389" height="78.0038" rx="7" fill="#CB5110"/>
<rect x="501.729" y="625.002" width="125.43" height="90" fill="#5E2608"/>
<rect x="507.748" y="637.004" width="113.389" height="72.0051" rx="7" fill="#CB5110"/>
<rect x="501.729" y="715.002" width="125.43" height="90" fill="#5E2608"/>
<rect x="507.748" y="720.998" width="113.389" height="78.0038" rx="7" fill="#D45511"/>
<rect x="501.729" y="895.002" width="125.43" height="90" fill="#5E2608"/>
<rect x="507.748" y="900.998" width="113.389" height="78.0038" rx="7" fill="#D45511"/>
<rect x="501.729" y="805.002" width="125.43" height="90" fill="#5E2608"/>
<rect x="507.748" y="810.998" width="113.389" height="78.0038" rx="7" fill="#CB5110"/>
<rect x="501.729" y="985.002" width="125.43" height="90" fill="#5E2608"/>
<rect x="507.748" y="990.998" width="113.389" height="78.0038" rx="7" fill="#CB5110"/>
<rect x="752.59" y="625.002" width="125.43" height="90" fill="#5E2608"/>
<rect x="758.611" y="637.004" width="113.389" height="72.0051" rx="7" fill="#CB5110"/>
<rect x="752.59" y="715.002" width="125.43" height="90" fill="#5E2608"/>
<rect x="758.611" y="720.998" width="113.389" height="78.0038" rx="7" fill="#D45511"/>
<rect x="752.59" y="895.002" width="125.43" height="90" fill="#5E2608"/>
<rect x="758.611" y="900.998" width="113.389" height="78.0038" rx="7" fill="#D45511"/>
<rect x="752.59" y="805.002" width="125.43" height="90" fill="#5E2608"/>
<rect x="758.611" y="810.998" width="113.389" height="78.0038" rx="7" fill="#CB5110"/>
<rect x="752.59" y="985.002" width="125.43" height="90" fill="#5E2608"/>
<rect x="758.611" y="990.998" width="113.389" height="78.0038" rx="7" fill="#CB5110"/>
<rect width="125.43" height="90" transform="matrix(1 0 0 -1 0.0078125 2150)" fill="#5E2608"/>
<rect width="107.368" height="72.0051" rx="7" transform="matrix(1 0 0 -1 12.0527 2138)" fill="#CB5110"/>
<rect width="125.43" height="90" transform="matrix(1 0 0 -1 0.0078125 2060)" fill="#5E2608"/>
<rect width="107.368" height="78.0038" rx="7" transform="matrix(1 0 0 -1 12.0527 2054.01)" fill="#D45511"/>
<rect width="125.43" height="90" transform="matrix(1 0 0 -1 0.0078125 1880)" fill="#5E2608"/>
<rect width="107.368" height="78.0038" rx="7" transform="matrix(1 0 0 -1 12.0527 1874.01)" fill="#D45511"/>
<rect width="125.43" height="90" transform="matrix(1 0 0 -1 0.0078125 1970)" fill="#5E2608"/>
<rect width="107.368" height="78.0038" rx="7" transform="matrix(1 0 0 -1 12.0527 1964.01)" fill="#CB5110"/>
<rect width="125.43" height="90" transform="matrix(1 0 0 -1 0.0078125 1790)" fill="#5E2608"/>
<rect width="107.368" height="78.0038" rx="7" transform="matrix(1 0 0 -1 12.0527 1784.01)" fill="#CB5110"/>
<rect width="125.43" height="90" transform="matrix(1 0 0 -1 125.438 2150)" fill="#5E2608"/>
<rect width="113.389" height="71.9951" rx="7" transform="matrix(1 0 0 -1 131.459 2138)" fill="#D45511"/>
<rect width="125.43" height="90" transform="matrix(1 0 0 -1 125.438 2150)" fill="#5E2608"/>
<rect width="113.389" height="72.0051" rx="7" transform="matrix(1 0 0 -1 131.459 2138)" fill="#D45511"/>
<rect width="125.43" height="90" transform="matrix(1 0 0 -1 125.438 2060)" fill="#5E2608"/>
<rect width="113.389" height="78.0038" rx="7" transform="matrix(1 0 0 -1 131.459 2054.01)" fill="#CB5110"/>
<rect width="125.43" height="90" transform="matrix(1 0 0 -1 125.438 1880)" fill="#5E2608"/>
<rect width="113.389" height="78.0038" rx="7" transform="matrix(1 0 0 -1 131.459 1874.01)" fill="#CB5110"/>
<rect width="125.43" height="90" transform="matrix(1 0 0 -1 125.438 1970)" fill="#5E2608"/>
<rect width="113.389" height="78.0038" rx="7" transform="matrix(1 0 0 -1 131.459 1964.01)" fill="#D45511"/>
<rect width="125.43" height="90" transform="matrix(1 0 0 -1 125.438 1790)" fill="#5E2608"/>
<rect width="113.389" height="78.0038" rx="7" transform="matrix(1 0 0 -1 131.459 1784.01)" fill="#D45511"/>
<rect width="125.43" height="90" transform="matrix(1 0 0 -1 376.299 2150)" fill="#5E2608"/>
<rect width="113.389" height="72.0051" rx="7" transform="matrix(1 0 0 -1 382.318 2138)" fill="#D45511"/>
<rect width="125.43" height="90" transform="matrix(1 0 0 -1 376.299 2060)" fill="#5E2608"/>
<rect width="113.389" height="78.0038" rx="7" transform="matrix(1 0 0 -1 382.318 2054.01)" fill="#CB5110"/>
<rect width="125.43" height="90" transform="matrix(1 0 0 -1 376.299 1880)" fill="#5E2608"/>
<rect width="113.389" height="78.0038" rx="7" transform="matrix(1 0 0 -1 382.318 1874.01)" fill="#CB5110"/>
<rect width="125.43" height="90" transform="matrix(1 0 0 -1 376.299 1970)" fill="#5E2608"/>
<rect width="113.389" height="78.0038" rx="7" transform="matrix(1 0 0 -1 382.318 1964.01)" fill="#D45511"/>
<rect width="125.43" height="90" transform="matrix(1 0 0 -1 376.299 1790)" fill="#5E2608"/>
<rect width="113.389" height="78.0038" rx="7" transform="matrix(1 0 0 -1 382.318 1784.01)" fill="#D45511"/>
<rect width="125.43" height="90" transform="matrix(1 0 0 -1 627.158 2150)" fill="#5E2608"/>
<rect width="113.389" height="72.0051" rx="7" transform="matrix(1 0 0 -1 633.178 2138)" fill="#D45511"/>
<rect width="125.43" height="90" transform="matrix(1 0 0 -1 627.158 2060)" fill="#5E2608"/>
<rect width="113.389" height="78.0038" rx="7" transform="matrix(1 0 0 -1 633.178 2054.01)" fill="#CB5110"/>
<rect width="125.43" height="90" transform="matrix(1 0 0 -1 627.158 1880)" fill="#5E2608"/>
<rect width="113.389" height="78.0038" rx="7" transform="matrix(1 0 0 -1 633.178 1874.01)" fill="#CB5110"/>
<rect width="125.43" height="90" transform="matrix(1 0 0 -1 627.158 1970)" fill="#5E2608"/>
<rect width="113.389" height="78.0038" rx="7" transform="matrix(1 0 0 -1 633.178 1964.01)" fill="#D45511"/>
<rect width="125.43" height="90" transform="matrix(1 0 0 -1 627.158 1790)" fill="#5E2608"/>
<rect width="113.389" height="78.0038" rx="7" transform="matrix(1 0 0 -1 633.178 1784.01)" fill="#D45511"/>
<rect width="125.43" height="90" transform="matrix(1 0 0 -1 250.869 2150)" fill="#5E2608"/>
<rect width="113.389" height="71.9951" rx="7" transform="matrix(1 0 0 -1 256.889 2138)" fill="#CB5110"/>
<rect width="125.43" height="90" transform="matrix(1 0 0 -1 250.869 2150)" fill="#5E2608"/>
<rect width="113.389" height="72.0051" rx="7" transform="matrix(1 0 0 -1 256.889 2138)" fill="#CB5110"/>
<rect width="125.43" height="90" transform="matrix(1 0 0 -1 250.869 2060)" fill="#5E2608"/>
<rect width="113.389" height="78.0038" rx="7" transform="matrix(1 0 0 -1 256.889 2054.01)" fill="#D45511"/>
<rect width="125.43" height="90" transform="matrix(1 0 0 -1 250.869 1880)" fill="#5E2608"/>
<rect width="113.389" height="78.0038" rx="7" transform="matrix(1 0 0 -1 256.889 1874.01)" fill="#D45511"/>
<rect width="125.43" height="90" transform="matrix(1 0 0 -1 250.869 1970)" fill="#5E2608"/>
<rect width="113.389" height="78.0038" rx="7" transform="matrix(1 0 0 -1 256.889 1964.01)" fill="#CB5110"/>
<rect width="125.43" height="90" transform="matrix(1 0 0 -1 250.869 1790)" fill="#5E2608"/>
<rect width="113.389" height="78.0038" rx="7" transform="matrix(1 0 0 -1 256.889 1784.01)" fill="#CB5110"/>
<rect width="125.43" height="90" transform="matrix(1 0 0 -1 501.729 2150)" fill="#5E2608"/>
<rect width="113.389" height="72.0051" rx="7" transform="matrix(1 0 0 -1 507.748 2138)" fill="#CB5110"/>
<rect width="125.43" height="90" transform="matrix(1 0 0 -1 501.729 2060)" fill="#5E2608"/>
<rect width="113.389" height="78.0038" rx="7" transform="matrix(1 0 0 -1 507.748 2054.01)" fill="#D45511"/>
<rect width="125.43" height="90" transform="matrix(1 0 0 -1 501.729 1880)" fill="#5E2608"/>
<rect width="113.389" height="78.0038" rx="7" transform="matrix(1 0 0 -1 507.748 1874.01)" fill="#D45511"/>
<rect width="125.43" height="90" transform="matrix(1 0 0 -1 501.729 1970)" fill="#5E2608"/>
<rect width="113.389" height="78.0038" rx="7" transform="matrix(1 0 0 -1 507.748 1964.01)" fill="#CB5110"/>
<rect width="125.43" height="90" transform="matrix(1 0 0 -1 501.729 1790)" fill="#5E2608"/>
<rect width="113.389" height="78.0038" rx="7" transform="matrix(1 0 0 -1 507.748 1784.01)" fill="#CB5110"/>
<rect width="125.43" height="90" transform="matrix(1 0 0 -1 752.59 2150)" fill="#5E2608"/>
<rect width="113.389" height="72.0051" rx="7" transform="matrix(1 0 0 -1 758.611 2138)" fill="#CB5110"/>
<rect width="125.43" height="90" transform="matrix(1 0 0 -1 752.59 2060)" fill="#5E2608"/>
<rect width="113.389" height="78.0038" rx="7" transform="matrix(1 0 0 -1 758.611 2054.01)" fill="#D45511"/>
<rect width="125.43" height="90" transform="matrix(1 0 0 -1 752.59 1880)" fill="#5E2608"/>
<rect width="113.389" height="78.0038" rx="7" transform="matrix(1 0 0 -1 758.611 1874.01)" fill="#D45511"/>
<rect width="125.43" height="90" transform="matrix(1 0 0 -1 752.59 1970)" fill="#5E2608"/>
<rect width="113.389" height="78.0038" rx="7" transform="matrix(1 0 0 -1 758.611 1964.01)" fill="#CB5110"/>
<rect width="125.43" height="90" transform="matrix(1 0 0 -1 752.59 1790)" fill="#5E2608"/>
<rect width="113.389" height="78.0038" rx="7" transform="matrix(1 0 0 -1 758.611 1784.01)" fill="#CB5110"/>
<rect width="125" height="125.43" transform="matrix(-4.38619e-08 -1 -1 4.35614e-08 689.873 625.002)" fill="#5E2608"/>
<rect width="113" height="113.389" rx="7" transform="matrix(-4.38619e-08 -1 -1 4.35614e-08 683.854 619.002)" fill="#B84A0F"/>
<rect width="125" height="125.43" transform="matrix(-4.38619e-08 -1 -1 4.35614e-08 439.014 625.002)" fill="#5E2608"/>
<rect width="113" height="113.389" rx="7" transform="matrix(-4.38619e-08 -1 -1 4.35614e-08 432.992 619.002)" fill="#B84A0F"/>
<rect width="125" height="125.43" transform="matrix(-4.38619e-08 -1 -1 4.35614e-08 815.305 625.002)" fill="#5E2608"/>
<rect width="113" height="113.389" rx="7" transform="matrix(-4.38619e-08 -1 -1 4.35614e-08 809.285 619.002)" fill="#C14D10"/>
<rect width="125" height="125.43" transform="matrix(-4.38619e-08 -1 -1 4.35614e-08 564.443 625.002)" fill="#5E2608"/>
<rect width="113" height="113.389" rx="7" transform="matrix(-4.38619e-08 -1 -1 4.35614e-08 558.424 619.002)" fill="#C14D10"/>
<rect width="125" height="125.43" transform="matrix(-4.38619e-08 -1 -1 4.35614e-08 689.873 375.002)" fill="#5E2608"/>
<rect width="113" height="113.389" rx="7" transform="matrix(-4.38619e-08 -1 -1 4.35614e-08 683.854 369.002)" fill="#B84A0F"/>
<rect width="125" height="125.43" transform="matrix(-4.38619e-08 -1 -1 4.35614e-08 439.014 375.002)" fill="#5E2608"/>
<rect width="113" height="113.389" rx="7" transform="matrix(-4.38619e-08 -1 -1 4.35614e-08 432.992 369.002)" fill="#B84A0F"/>
<rect width="125" height="125.43" transform="matrix(-4.38619e-08 -1 -1 4.35614e-08 815.305 375.002)" fill="#5E2608"/>
<rect width="113" height="113.389" rx="7" transform="matrix(-4.38619e-08 -1 -1 4.35614e-08 809.285 369.002)" fill="#C14D10"/>
<rect width="125" height="125.43" transform="matrix(-4.38619e-08 -1 -1 4.35614e-08 564.443 375.002)" fill="#5E2608"/>
<rect width="113" height="113.389" rx="7" transform="matrix(-4.38619e-08 -1 -1 4.35614e-08 558.424 369.002)" fill="#C14D10"/>
<rect width="125" height="125.43" transform="matrix(-4.38619e-08 -1 -1 4.35614e-08 689.873 125)" fill="#5E2608"/>
<rect width="107" height="113.389" rx="7" transform="matrix(-4.38619e-08 -1 -1 4.35614e-08 683.854 119)" fill="#B84A0F"/>
<rect width="125" height="125.43" transform="matrix(-4.38619e-08 -1 -1 4.35614e-08 439.014 125)" fill="#5E2608"/>
<rect width="107" height="113.389" rx="7" transform="matrix(-4.38619e-08 -1 -1 4.35614e-08 432.994 119)" fill="#B84A0F"/>
<rect width="125" height="125.43" transform="matrix(-4.38619e-08 -1 -1 4.35614e-08 815.305 125)" fill="#5E2608"/>
<rect width="107" height="113.389" rx="7" transform="matrix(-4.38619e-08 -1 -1 4.35614e-08 809.285 119)" fill="#C14D10"/>
<rect width="125" height="125.43" transform="matrix(-4.38619e-08 -1 -1 4.35614e-08 564.443 125)" fill="#5E2608"/>
<rect width="107" height="113.389" rx="7" transform="matrix(-4.38619e-08 -1 -1 4.35614e-08 558.424 119)" fill="#C14D10"/>
<rect width="125" height="125.43" transform="matrix(-4.38619e-08 -1 -1 4.35614e-08 689.873 500.002)" fill="#5E2608"/>
<rect width="113" height="113.389" rx="7" transform="matrix(-4.38619e-08 -1 -1 4.35614e-08 683.854 494.002)" fill="#C14D10"/>
<rect width="125" height="125.43" transform="matrix(-4.38619e-08 -1 -1 4.35614e-08 439.014 500.002)" fill="#5E2608"/>
<rect width="113" height="113.389" rx="7" transform="matrix(-4.38619e-08 -1 -1 4.35614e-08 432.992 494.002)" fill="#C14D10"/>
<rect width="125" height="125.43" transform="matrix(-4.38619e-08 -1 -1 4.35614e-08 815.305 500.002)" fill="#5E2608"/>
<rect width="113" height="113.389" rx="7" transform="matrix(-4.38619e-08 -1 -1 4.35614e-08 809.285 494.002)" fill="#B84A0F"/>
<rect width="125" height="125.43" transform="matrix(-4.38619e-08 -1 -1 4.35614e-08 564.443 500.002)" fill="#5E2608"/>
<rect width="113" height="113.389" rx="7" transform="matrix(-4.38619e-08 -1 -1 4.35614e-08 558.424 494.002)" fill="#B84A0F"/>
<rect width="125" height="125.43" transform="matrix(-4.38619e-08 -1 -1 4.35614e-08 689.873 250.002)" fill="#5E2608"/>
<rect width="113" height="113.389" rx="7" transform="matrix(-4.38619e-08 -1 -1 4.35614e-08 683.854 244.002)" fill="#C14D10"/>
<rect width="125" height="125.43" transform="matrix(-4.38619e-08 -1 -1 4.35614e-08 439.014 250.002)" fill="#5E2608"/>
<rect width="113" height="113.389" rx="7" transform="matrix(-4.38619e-08 -1 -1 4.35614e-08 432.994 244.002)" fill="#C14D10"/>
<rect width="125" height="125.43" transform="matrix(-4.38619e-08 -1 -1 4.35614e-08 815.305 250.002)" fill="#5E2608"/>
<rect width="113" height="113.389" rx="7" transform="matrix(-4.38619e-08 -1 -1 4.35614e-08 809.285 244.002)" fill="#B84A0F"/>
<rect x="878.02" y="1075" width="125.43" height="125" fill="#5E2608"/>
<rect x="884.041" y="1081" width="113.389" height="113" rx="7" fill="#D95712"/>
<rect x="878.02" y="1325" width="125.43" height="125" fill="#5E2608"/>
<rect x="884.041" y="1331" width="113.389" height="113" rx="7" fill="#D95712"/>
<rect x="878.02" y="1575" width="125.43" height="125" fill="#5E2608"/>
<rect x="884.041" y="1581" width="113.389" height="113" rx="7" fill="#D95712"/>
<rect x="878.02" y="1200" width="125.43" height="125" fill="#5E2608"/>
<rect x="884.041" y="1206" width="113.389" height="113" rx="7" fill="#E25B12"/>
<rect x="878.02" y="1450" width="125.43" height="125" fill="#5E2608"/>
<rect x="884.041" y="1456" width="113.389" height="113" rx="7" fill="#E25B12"/>
<rect x="1003.45" y="1075" width="125.43" height="125" fill="#5E2608"/>
<rect x="1009.47" y="1081" width="113.389" height="113" rx="7" fill="#E25B12"/>
<rect x="1003.45" y="1325" width="125.43" height="125" fill="#5E2608"/>
<rect x="1009.47" y="1331" width="113.389" height="113" rx="7" fill="#E25B12"/>
<rect x="1003.45" y="1575" width="125.43" height="125" fill="#5E2608"/>
<rect x="1009.47" y="1581" width="113.389" height="113" rx="7" fill="#E25B12"/>
<rect x="1003.45" y="1200" width="125.43" height="125" fill="#5E2608"/>
<rect x="1009.47" y="1206" width="113.389" height="113" rx="7" fill="#D95712"/>
<rect x="1003.45" y="1450" width="125.43" height="125" fill="#5E2608"/>
<rect x="1009.47" y="1456" width="113.389" height="113" rx="7" fill="#D95712"/>
<rect x="878.02" y="625.002" width="125.43" height="90" fill="#5E2608"/>
<rect x="884.041" y="637.004" width="113.389" height="72.0051" rx="7" fill="#D45511"/>
<rect x="878.02" y="715.002" width="125.43" height="90" fill="#5E2608"/>
<rect x="884.041" y="720.998" width="113.389" height="78.0038" rx="7" fill="#CB5110"/>
<rect x="878.02" y="895.002" width="125.43" height="90" fill="#5E2608"/>
<rect x="884.041" y="900.998" width="113.389" height="78.0038" rx="7" fill="#CB5110"/>
<rect x="878.02" y="805.002" width="125.43" height="90" fill="#5E2608"/>
<rect x="884.041" y="810.998" width="113.389" height="78.0038" rx="7" fill="#D45511"/>
<rect x="878.02" y="985.002" width="125.43" height="90" fill="#5E2608"/>
<rect x="884.041" y="990.998" width="113.389" height="78.0038" rx="7" fill="#D45511"/>
<rect x="1003.45" y="625.002" width="125.43" height="90" fill="#5E2608"/>
<rect x="1009.47" y="637.004" width="113.389" height="72.0051" rx="7" fill="#CB5110"/>
<rect x="1003.45" y="715.002" width="125.43" height="90" fill="#5E2608"/>
<rect x="1009.47" y="720.998" width="113.389" height="78.0038" rx="7" fill="#D45511"/>
<rect x="1003.45" y="895.002" width="125.43" height="90" fill="#5E2608"/>
<rect x="1009.47" y="900.998" width="113.389" height="78.0038" rx="7" fill="#D45511"/>
<rect x="1003.45" y="805.002" width="125.43" height="90" fill="#5E2608"/>
<rect x="1009.47" y="810.998" width="113.389" height="78.0038" rx="7" fill="#CB5110"/>
<rect x="1003.45" y="985.002" width="125.43" height="90" fill="#5E2608"/>
<rect x="1009.47" y="990.998" width="113.389" height="78.0038" rx="7" fill="#CB5110"/>
<rect width="125.43" height="90" transform="matrix(1 0 0 -1 878.02 2150)" fill="#5E2608"/>
<rect width="113.389" height="72.0051" rx="7" transform="matrix(1 0 0 -1 884.041 2138)" fill="#D45511"/>
<rect width="125.43" height="90" transform="matrix(1 0 0 -1 878.02 2060)" fill="#5E2608"/>
<rect width="113.389" height="78.0038" rx="7" transform="matrix(1 0 0 -1 884.041 2054.01)" fill="#CB5110"/>
<rect width="125.43" height="90" transform="matrix(1 0 0 -1 878.02 1880)" fill="#5E2608"/>
<rect width="113.389" height="78.0038" rx="7" transform="matrix(1 0 0 -1 884.041 1874.01)" fill="#CB5110"/>
<rect width="125.43" height="90" transform="matrix(1 0 0 -1 878.02 1970)" fill="#5E2608"/>
<rect width="113.389" height="78.0038" rx="7" transform="matrix(1 0 0 -1 884.041 1964.01)" fill="#D45511"/>
<rect width="125.43" height="90" transform="matrix(1 0 0 -1 878.02 1790)" fill="#5E2608"/>
<rect width="113.389" height="78.0038" rx="7" transform="matrix(1 0 0 -1 884.041 1784.01)" fill="#D45511"/>
<rect width="125.43" height="90" transform="matrix(1 0 0 -1 1003.45 2150)" fill="#5E2608"/>
<rect width="113.389" height="72.0051" rx="7" transform="matrix(1 0 0 -1 1009.47 2138)" fill="#CB5110"/>
<rect width="125.43" height="90" transform="matrix(1 0 0 -1 1003.45 2060)" fill="#5E2608"/>
<rect width="113.389" height="78.0038" rx="7" transform="matrix(1 0 0 -1 1009.47 2054.01)" fill="#D45511"/>
<rect width="125.43" height="90" transform="matrix(1 0 0 -1 1003.45 1880)" fill="#5E2608"/>
<rect width="113.389" height="78.0038" rx="7" transform="matrix(1 0 0 -1 1009.47 1874.01)" fill="#D45511"/>
<rect width="125.43" height="90" transform="matrix(1 0 0 -1 1003.45 1970)" fill="#5E2608"/>
<rect width="113.389" height="78.0038" rx="7" transform="matrix(1 0 0 -1 1009.47 1964.01)" fill="#CB5110"/>
<rect width="125.43" height="90" transform="matrix(1 0 0 -1 1003.45 1790)" fill="#5E2608"/>
<rect width="113.389" height="78.0038" rx="7" transform="matrix(1 0 0 -1 1009.47 1784.01)" fill="#CB5110"/>
<rect width="125" height="125.43" transform="matrix(-4.38619e-08 -1 -1 4.35614e-08 940.734 625.002)" fill="#5E2608"/>
<rect width="113" height="113.389" rx="7" transform="matrix(-4.38619e-08 -1 -1 4.35614e-08 934.715 619.002)" fill="#B84A0F"/>
<rect width="125" height="125.43" transform="matrix(-4.38619e-08 -1 -1 4.35614e-08 1066.17 625.002)" fill="#5E2608"/>
<rect width="113" height="113.389" rx="7" transform="matrix(-4.38619e-08 -1 -1 4.35614e-08 1060.15 619.002)" fill="#C14D10"/>
<rect width="125" height="125.43" transform="matrix(-4.38619e-08 -1 -1 4.35614e-08 940.734 375.002)" fill="#5E2608"/>
<rect width="113" height="113.389" rx="7" transform="matrix(-4.38619e-08 -1 -1 4.35614e-08 934.715 369.002)" fill="#B84A0F"/>
<rect width="125" height="125.43" transform="matrix(-4.38619e-08 -1 -1 4.35614e-08 1066.17 375.002)" fill="#5E2608"/>
<rect width="113" height="113.389" rx="7" transform="matrix(-4.38619e-08 -1 -1 4.35614e-08 1060.15 369.002)" fill="#C14D10"/>
<rect width="125" height="125.43" transform="matrix(-4.38619e-08 -1 -1 4.35614e-08 940.734 125)" fill="#5E2608"/>
<rect width="107" height="113.389" rx="7" transform="matrix(-4.38619e-08 -1 -1 4.35614e-08 934.715 119)" fill="#B84A0F"/>
<rect width="125" height="125.43" transform="matrix(-4.38619e-08 -1 -1 4.35614e-08 1066.17 125)" fill="#5E2608"/>
<rect width="107" height="113.389" rx="7" transform="matrix(-4.38619e-08 -1 -1 4.35614e-08 1060.15 119)" fill="#C14D10"/>
<rect width="125" height="125.43" transform="matrix(-4.38619e-08 -1 -1 4.35614e-08 940.734 500.002)" fill="#5E2608"/>
<rect width="113" height="113.389" rx="7" transform="matrix(-4.38619e-08 -1 -1 4.35614e-08 934.715 494.002)" fill="#C14D10"/>
<rect width="125" height="125.43" transform="matrix(-4.38619e-08 -1 -1 4.35614e-08 1066.17 500.002)" fill="#5E2608"/>
<rect width="113" height="113.389" rx="7" transform="matrix(-4.38619e-08 -1 -1 4.35614e-08 1060.15 494.002)" fill="#B84A0F"/>
<rect width="125" height="125.43" transform="matrix(-4.38619e-08 -1 -1 4.35614e-08 940.734 250.002)" fill="#5E2608"/>
<rect width="113" height="113.389" rx="7" transform="matrix(-4.38619e-08 -1 -1 4.35614e-08 934.715 244.002)" fill="#C14D10"/>
<rect width="125" height="125.43" transform="matrix(-4.38619e-08 -1 -1 4.35614e-08 1066.17 250.002)" fill="#5E2608"/>
<rect width="113" height="113.389" rx="7" transform="matrix(-4.38619e-08 -1 -1 4.35614e-08 1060.15 244.002)" fill="#B84A0F"/>
<rect width="125" height="125.43" transform="matrix(-4.38619e-08 -1 -1 4.35614e-08 564.443 250.002)" fill="#5E2608"/>
<rect width="113" height="113.389" rx="7" transform="matrix(-4.38619e-08 -1 -1 4.35614e-08 558.424 244.002)" fill="#B84A0F"/>
<rect x="42.6543" y="625.002" width="125" height="90.3099" transform="rotate(-90 42.6543 625.002)" fill="#5E2608"/>
<rect x="54.6973" y="619.002" width="113" height="72.253" rx="7" transform="rotate(-90 54.6973 619.002)" fill="#B3480F"/>
<rect x="132.963" y="625.002" width="125" height="90.3099" transform="rotate(-90 132.963 625.002)" fill="#5E2608"/>
<rect x="138.979" y="619.002" width="113" height="78.2724" rx="7" transform="rotate(-90 138.979 619.002)" fill="#AA440E"/>
<rect x="223.273" y="625.002" width="125" height="90.3099" transform="rotate(-90 223.273 625.002)" fill="#5E2608"/>
<rect x="229.289" y="619.002" width="113" height="78.2724" rx="7" transform="rotate(-90 229.289 619.002)" fill="#B3480F"/>
<rect x="42.6543" y="375.002" width="125" height="90.3099" transform="rotate(-90 42.6543 375.002)" fill="#5E2608"/>
<rect x="54.6973" y="369.002" width="113" height="72.253" rx="7" transform="rotate(-90 54.6973 369.002)" fill="#B3480F"/>
<rect x="132.963" y="375.002" width="125" height="90.3099" transform="rotate(-90 132.963 375.002)" fill="#5E2608"/>
<rect x="138.979" y="369.002" width="113" height="78.2724" rx="7" transform="rotate(-90 138.979 369.002)" fill="#AA440E"/>
<rect x="223.273" y="375.002" width="125" height="90.3099" transform="rotate(-90 223.273 375.002)" fill="#5E2608"/>
<rect x="229.289" y="369.002" width="113" height="78.2724" rx="7" transform="rotate(-90 229.289 369.002)" fill="#B3480F"/>
<path d="M42.6543 125L42.6543 12C42.6543 5.37259 48.0269 7.39536e-06 54.6543 7.10666e-06L132.964 3.69537e-06L132.964 125L42.6543 125Z" fill="#5E2608"/>
<rect x="54.6973" y="119" width="107" height="72.253" rx="7" transform="rotate(-90 54.6973 119)" fill="#B3480F"/>
<rect x="132.963" y="125" width="125" height="90.3099" transform="rotate(-90 132.963 125)" fill="#5E2608"/>
<rect x="138.979" y="119" width="107" height="78.2724" rx="7" transform="rotate(-90 138.979 119)" fill="#AA440E"/>
<rect x="223.273" y="125" width="125" height="90.3099" transform="rotate(-90 223.273 125)" fill="#5E2608"/>
<rect x="229.289" y="119" width="107" height="78.2724" rx="7" transform="rotate(-90 229.289 119)" fill="#B3480F"/>
<rect x="42.6543" y="500.002" width="125" height="90.3099" transform="rotate(-90 42.6543 500.002)" fill="#5E2608"/>
<rect x="54.6973" y="494.002" width="113" height="72.253" rx="7" transform="rotate(-90 54.6973 494.002)" fill="#AA440E"/>
<rect x="132.963" y="500.002" width="125" height="90.3099" transform="rotate(-90 132.963 500.002)" fill="#5E2608"/>
<rect x="138.979" y="494.002" width="113" height="78.2724" rx="7" transform="rotate(-90 138.979 494.002)" fill="#B3480F"/>
<rect x="223.273" y="500.002" width="125" height="90.3099" transform="rotate(-90 223.273 500.002)" fill="#5E2608"/>
<rect x="229.289" y="494.002" width="113" height="78.2724" rx="7" transform="rotate(-90 229.289 494.002)" fill="#AA440E"/>
<rect x="42.6543" y="250.002" width="125" height="90.3099" transform="rotate(-90 42.6543 250.002)" fill="#5E2608"/>
<rect x="54.6973" y="244.002" width="113" height="72.253" rx="7" transform="rotate(-90 54.6973 244.002)" fill="#AA440E"/>
<rect x="132.963" y="250.002" width="125" height="90.3099" transform="rotate(-90 132.963 250.002)" fill="#5E2608"/>
<rect x="138.979" y="244.002" width="113" height="78.2724" rx="7" transform="rotate(-90 138.979 244.002)" fill="#B3480F"/>
<rect x="223.273" y="250.002" width="125" height="90.3099" transform="rotate(-90 223.273 250.002)" fill="#5E2608"/>
<rect x="229.289" y="244.002" width="113" height="78.2724" rx="7" transform="rotate(-90 229.289 244.002)" fill="#AA440E"/>
<rect x="100.352" y="1818" width="232.799" height="232" rx="12" fill="#5E2608"/>
<rect x="146.51" y="1864" width="140.482" height="140" rx="7" fill="#421B05"/>
<path d="M116.408 1840.99C116.411 1839.06 117.197 1837.31 118.466 1836.05L148.569 1866.05C147.298 1867.32 146.511 1869.07 146.511 1871V1997C146.511 1998.93 147.298 2000.68 148.569 2001.95L118.466 2031.95C117.195 2030.68 116.409 2028.93 116.408 2027L116.408 1840.99Z" fill="#EE722F"/>
<path d="M148.567 2001.95L118.463 2031.95C119.734 2033.22 121.49 2034 123.43 2034H310.07C312.01 2034 313.766 2033.22 315.037 2031.95L284.934 2001.95C283.663 2003.22 281.907 2004 279.967 2004H153.533C151.594 2004 149.838 2003.22 148.567 2001.95Z" fill="#ED6F26"/>
<path d="M123.43 1834H310.07C312.01 1834 313.766 1834.78 315.037 1836.05L284.934 1866.05C283.663 1864.78 281.907 1864 279.967 1864H153.533C151.594 1864 149.838 1864.78 148.566 1866.05L118.463 1836.05C119.734 1834.78 121.49 1834 123.43 1834Z" fill="#EF7C39"/>
<path d="M315.041 2031.95C316.311 2030.68 317.097 2028.93 317.098 2027V1841C317.098 1839.07 316.312 1837.32 315.041 1836.05L284.937 1866.05C286.207 1867.32 286.993 1869.07 286.993 1871V1997C286.993 1998.93 286.207 2000.68 284.936 2001.95L315.041 2031.95Z" fill="#EE722F"/>
<rect x="1128.88" y="1075" width="125.43" height="125" fill="#5E2608"/>
<rect x="1134.9" y="1081" width="113.389" height="113" rx="7" fill="#D95712"/>
<rect x="1128.88" y="1325" width="125.43" height="125" fill="#5E2608"/>
<rect x="1134.9" y="1331" width="113.389" height="113" rx="7" fill="#D95712"/>
<rect x="1128.88" y="1575" width="125.43" height="125" fill="#5E2608"/>
<rect x="1134.9" y="1581" width="113.389" height="113" rx="7" fill="#D95712"/>
<rect x="1128.88" y="1200" width="125.43" height="125" fill="#5E2608"/>
<rect x="1134.9" y="1206" width="113.389" height="113" rx="7" fill="#E25B12"/>
<rect x="1128.88" y="1450" width="125.43" height="125" fill="#5E2608"/>
<rect x="1134.9" y="1456" width="113.389" height="113" rx="7" fill="#E25B12"/>
<rect x="1379.74" y="1075" width="125.43" height="125" fill="#5E2608"/>
<rect x="1385.76" y="1081" width="107.368" height="113" rx="7" fill="#D95712"/>
<rect x="1379.74" y="1325" width="125.43" height="125" fill="#5E2608"/>
<rect x="1385.76" y="1331" width="107.368" height="113" rx="7" fill="#D95712"/>
<rect x="1379.74" y="1575" width="125.43" height="125" fill="#5E2608"/>
<rect x="1385.76" y="1581" width="107.368" height="113" rx="7" fill="#D95712"/>
<rect x="1379.74" y="1200" width="125.43" height="125" fill="#5E2608"/>
<rect x="1385.76" y="1206" width="107.368" height="113" rx="7" fill="#E25B12"/>
<rect x="1379.74" y="1450" width="125.43" height="125" fill="#5E2608"/>
<rect x="1385.76" y="1456" width="107.368" height="113" rx="7" fill="#E25B12"/>
<rect x="1254.31" y="1075" width="125.43" height="125" fill="#5E2608"/>
<rect x="1260.33" y="1081" width="113.389" height="113" rx="7" fill="#E25B12"/>
<rect x="1254.31" y="1325" width="125.43" height="125" fill="#5E2608"/>
<rect x="1260.33" y="1331" width="113.389" height="113" rx="7" fill="#E25B12"/>
<rect x="1254.31" y="1575" width="125.43" height="125" fill="#5E2608"/>
<rect x="1260.33" y="1581" width="113.389" height="113" rx="7" fill="#E25B12"/>
<rect x="1254.31" y="1200" width="125.43" height="125" fill="#5E2608"/>
<rect x="1260.33" y="1206" width="113.389" height="113" rx="7" fill="#D95712"/>
<rect x="1254.31" y="1450" width="125.43" height="125" fill="#5E2608"/>
<rect x="1260.33" y="1456" width="113.389" height="113" rx="7" fill="#D95712"/>
<rect x="1128.88" y="625.002" width="125.43" height="90" fill="#5E2608"/>
<rect x="1134.9" y="637.004" width="113.389" height="72.0051" rx="7" fill="#D45511"/>
<rect x="1128.88" y="715.002" width="125.43" height="90" fill="#5E2608"/>
<rect x="1134.9" y="720.998" width="113.389" height="78.0038" rx="7" fill="#CB5110"/>
<rect x="1128.88" y="895.002" width="125.43" height="90" fill="#5E2608"/>
<rect x="1134.9" y="900.998" width="113.389" height="78.0038" rx="7" fill="#CB5110"/>
<rect x="1128.88" y="805.002" width="125.43" height="90" fill="#5E2608"/>
<rect x="1134.9" y="810.998" width="113.389" height="78.0038" rx="7" fill="#D45511"/>
<rect x="1128.88" y="985.002" width="125.43" height="90" fill="#5E2608"/>
<rect x="1134.9" y="990.998" width="113.389" height="78.0038" rx="7" fill="#D45511"/>
<path d="M1379.74 625.002H1493.17C1499.8 625.002 1505.17 630.375 1505.17 637.002V715.002H1379.74V625.002Z" fill="#5E2608"/>
<rect x="1385.76" y="637.004" width="107.368" height="72.0051" rx="7" fill="#D45511"/>
<rect x="1379.74" y="715.002" width="125.43" height="90" fill="#5E2608"/>
<rect x="1385.76" y="720.998" width="107.368" height="78.0038" rx="7" fill="#CB5110"/>
<rect x="1379.74" y="895.002" width="125.43" height="90" fill="#5E2608"/>
<rect x="1385.76" y="900.998" width="107.368" height="78.0038" rx="7" fill="#CB5110"/>
<rect x="1379.74" y="805.002" width="125.43" height="90" fill="#5E2608"/>
<rect x="1385.76" y="810.998" width="107.368" height="78.0038" rx="7" fill="#D45511"/>
<rect x="1379.74" y="985.002" width="125.43" height="90" fill="#5E2608"/>
<rect x="1385.76" y="990.998" width="107.368" height="78.0038" rx="7" fill="#D45511"/>
<rect x="1254.31" y="625.002" width="125.43" height="90" fill="#5E2608"/>
<rect x="1260.33" y="637.004" width="113.389" height="72.0051" rx="7" fill="#CB5110"/>
<rect x="1254.31" y="715.002" width="125.43" height="90" fill="#5E2608"/>
<rect x="1260.33" y="720.998" width="113.389" height="78.0038" rx="7" fill="#D45511"/>
<rect x="1254.31" y="895.002" width="125.43" height="90" fill="#5E2608"/>
<rect x="1260.33" y="900.998" width="113.389" height="78.0038" rx="7" fill="#D45511"/>
<rect x="1254.31" y="805.002" width="125.43" height="90" fill="#5E2608"/>
<rect x="1260.33" y="810.998" width="113.389" height="78.0038" rx="7" fill="#CB5110"/>
<rect x="1254.31" y="985.002" width="125.43" height="90" fill="#5E2608"/>
<rect x="1260.33" y="990.998" width="113.389" height="78.0038" rx="7" fill="#CB5110"/>
<rect width="125.43" height="90" transform="matrix(1 0 0 -1 1128.88 2150)" fill="#5E2608"/>
<rect width="113.389" height="72.0051" rx="7" transform="matrix(1 0 0 -1 1134.9 2138)" fill="#D45511"/>
<rect width="125.43" height="90" transform="matrix(1 0 0 -1 1128.88 2060)" fill="#5E2608"/>
<rect width="113.389" height="78.0038" rx="7" transform="matrix(1 0 0 -1 1134.9 2054.01)" fill="#CB5110"/>
<rect width="125.43" height="90" transform="matrix(1 0 0 -1 1128.88 1880)" fill="#5E2608"/>
<rect width="113.389" height="78.0038" rx="7" transform="matrix(1 0 0 -1 1134.9 1874.01)" fill="#CB5110"/>
<rect width="125.43" height="90" transform="matrix(1 0 0 -1 1128.88 1970)" fill="#5E2608"/>
<rect width="113.389" height="78.0038" rx="7" transform="matrix(1 0 0 -1 1134.9 1964.01)" fill="#D45511"/>
<rect width="125.43" height="90" transform="matrix(1 0 0 -1 1128.88 1790)" fill="#5E2608"/>
<rect width="113.389" height="78.0038" rx="7" transform="matrix(1 0 0 -1 1134.9 1784.01)" fill="#D45511"/>
<rect width="125.43" height="90" transform="matrix(1 0 0 -1 1379.74 2150)" fill="#5E2608"/>
<rect width="107.368" height="72.0051" rx="7" transform="matrix(1 0 0 -1 1385.76 2138)" fill="#D45511"/>
<rect width="125.43" height="90" transform="matrix(1 0 0 -1 1379.74 2060)" fill="#5E2608"/>
<rect width="107.368" height="78.0038" rx="7" transform="matrix(1 0 0 -1 1385.76 2054.01)" fill="#CB5110"/>
<rect width="125.43" height="90" transform="matrix(1 0 0 -1 1379.74 1880)" fill="#5E2608"/>
<rect width="107.368" height="78.0038" rx="7" transform="matrix(1 0 0 -1 1385.76 1874.01)" fill="#CB5110"/>
<rect width="125.43" height="90" transform="matrix(1 0 0 -1 1379.74 1970)" fill="#5E2608"/>
<rect width="107.368" height="78.0038" rx="7" transform="matrix(1 0 0 -1 1385.76 1964.01)" fill="#D45511"/>
<rect width="125.43" height="90" transform="matrix(1 0 0 -1 1379.74 1790)" fill="#5E2608"/>
<rect width="107.368" height="78.0038" rx="7" transform="matrix(1 0 0 -1 1385.76 1784.01)" fill="#D45511"/>
<rect width="125.43" height="90" transform="matrix(1 0 0 -1 1254.31 2150)" fill="#5E2608"/>
<rect width="113.389" height="72.0051" rx="7" transform="matrix(1 0 0 -1 1260.33 2138)" fill="#CB5110"/>
<rect width="125.43" height="90" transform="matrix(1 0 0 -1 1254.31 2060)" fill="#5E2608"/>
<rect width="113.389" height="78.0038" rx="7" transform="matrix(1 0 0 -1 1260.33 2054.01)" fill="#D45511"/>
<rect width="125.43" height="90" transform="matrix(1 0 0 -1 1254.31 1880)" fill="#5E2608"/>
<rect width="113.389" height="78.0038" rx="7" transform="matrix(1 0 0 -1 1260.33 1874.01)" fill="#D45511"/>
<rect width="125.43" height="90" transform="matrix(1 0 0 -1 1254.31 1970)" fill="#5E2608"/>
<rect width="113.389" height="78.0038" rx="7" transform="matrix(1 0 0 -1 1260.33 1964.01)" fill="#CB5110"/>
<rect width="125.43" height="90" transform="matrix(1 0 0 -1 1254.31 1790)" fill="#5E2608"/>
<rect width="113.389" height="78.0038" rx="7" transform="matrix(1 0 0 -1 1260.33 1784.01)" fill="#CB5110"/>
<rect width="125" height="125.43" transform="matrix(-4.38619e-08 -1 -1 4.35614e-08 1191.6 625.002)" fill="#5E2608"/>
<rect width="113" height="113.389" rx="7" transform="matrix(-4.38619e-08 -1 -1 4.35614e-08 1185.58 619.002)" fill="#B84A0F"/>
<rect width="125" height="125.43" transform="matrix(-4.38619e-08 -1 -1 4.35614e-08 1191.6 375.002)" fill="#5E2608"/>
<rect width="113" height="113.389" rx="7" transform="matrix(-4.38619e-08 -1 -1 4.35614e-08 1185.58 369.002)" fill="#B84A0F"/>
<rect width="125" height="125.43" transform="matrix(-4.38619e-08 -1 -1 4.35614e-08 1191.6 125)" fill="#5E2608"/>
<rect width="107" height="113.389" rx="7" transform="matrix(-4.38619e-08 -1 -1 4.35614e-08 1185.58 119)" fill="#B84A0F"/>
<rect width="125" height="125.43" transform="matrix(-4.38619e-08 -1 -1 4.35614e-08 1191.6 500.002)" fill="#5E2608"/>
<rect width="113" height="113.389" rx="7" transform="matrix(-4.38619e-08 -1 -1 4.35614e-08 1185.58 494.002)" fill="#C14D10"/>
<rect width="125" height="125.43" transform="matrix(-4.38619e-08 -1 -1 4.35614e-08 1191.6 250.002)" fill="#5E2608"/>
<rect width="113" height="113.389" rx="7" transform="matrix(-4.38619e-08 -1 -1 4.35614e-08 1185.58 244.002)" fill="#C14D10"/>
<rect width="125" height="90.3099" transform="matrix(-4.38619e-08 -1 -1 4.35614e-08 1462.53 625.002)" fill="#5E2608"/>
<rect width="113" height="72.253" rx="7" transform="matrix(-4.38619e-08 -1 -1 4.35614e-08 1450.48 619.002)" fill="#B3480F"/>
<rect width="125" height="90.3099" transform="matrix(-4.38619e-08 -1 -1 4.35614e-08 1372.22 625.002)" fill="#5E2608"/>
<rect width="113" height="78.2724" rx="7" transform="matrix(-4.38619e-08 -1 -1 4.35614e-08 1366.2 619.002)" fill="#AA440E"/>
<rect width="125" height="90.3099" transform="matrix(-4.38619e-08 -1 -1 4.35614e-08 1281.91 625.002)" fill="#5E2608"/>
<rect width="113" height="78.2724" rx="7" transform="matrix(-4.38619e-08 -1 -1 4.35614e-08 1275.89 619.002)" fill="#B3480F"/>
<rect width="125" height="90.3099" transform="matrix(-4.38619e-08 -1 -1 4.35614e-08 1462.53 375.002)" fill="#5E2608"/>
<rect width="113" height="72.253" rx="7" transform="matrix(-4.38619e-08 -1 -1 4.35614e-08 1450.48 369.002)" fill="#B3480F"/>
<rect width="125" height="90.3099" transform="matrix(-4.38619e-08 -1 -1 4.35614e-08 1372.22 375.002)" fill="#5E2608"/>
<rect width="113" height="78.2724" rx="7" transform="matrix(-4.38619e-08 -1 -1 4.35614e-08 1366.2 369.002)" fill="#AA440E"/>
<rect width="125" height="90.3099" transform="matrix(-4.38619e-08 -1 -1 4.35614e-08 1281.91 375.002)" fill="#5E2608"/>
<rect width="113" height="78.2724" rx="7" transform="matrix(-4.38619e-08 -1 -1 4.35614e-08 1275.89 369.002)" fill="#B3480F"/>
<path d="M1462.53 125L1462.53 12C1462.53 5.37259 1457.15 2.34037e-07 1450.53 5.22737e-07L1372.22 3.93402e-06L1372.22 125L1462.53 125Z" fill="#5E2608"/>
<rect width="107" height="72.253" rx="7" transform="matrix(-4.38619e-08 -1 -1 4.35614e-08 1450.48 119)" fill="#B3480F"/>
<rect width="125" height="90.3099" transform="matrix(-4.38619e-08 -1 -1 4.35614e-08 1372.22 125)" fill="#5E2608"/>
<rect width="107" height="78.2724" rx="7" transform="matrix(-4.38619e-08 -1 -1 4.35614e-08 1366.2 119)" fill="#AA440E"/>
<rect width="125" height="90.3099" transform="matrix(-4.38619e-08 -1 -1 4.35614e-08 1281.91 125)" fill="#5E2608"/>
<rect width="107" height="78.2724" rx="7" transform="matrix(-4.38619e-08 -1 -1 4.35614e-08 1275.89 119)" fill="#B3480F"/>
<rect width="125" height="90.3099" transform="matrix(-4.38619e-08 -1 -1 4.35614e-08 1462.53 500.002)" fill="#5E2608"/>
<rect width="113" height="72.253" rx="7" transform="matrix(-4.38619e-08 -1 -1 4.35614e-08 1450.48 494.002)" fill="#AA440E"/>
<rect width="125" height="90.3099" transform="matrix(-4.38619e-08 -1 -1 4.35614e-08 1372.22 500.002)" fill="#5E2608"/>
<rect width="113" height="78.2724" rx="7" transform="matrix(-4.38619e-08 -1 -1 4.35614e-08 1366.2 494.002)" fill="#B3480F"/>
<rect width="125" height="90.3099" transform="matrix(-4.38619e-08 -1 -1 4.35614e-08 1281.91 500.002)" fill="#5E2608"/>
<rect width="113" height="78.2724" rx="7" transform="matrix(-4.38619e-08 -1 -1 4.35614e-08 1275.89 494.002)" fill="#AA440E"/>
<rect width="125" height="90.3099" transform="matrix(-4.38619e-08 -1 -1 4.35614e-08 1462.53 250.002)" fill="#5E2608"/>
<rect width="113" height="72.253" rx="7" transform="matrix(-4.38619e-08 -1 -1 4.35614e-08 1450.48 244.002)" fill="#AA440E"/>
<rect width="125" height="90.3099" transform="matrix(-4.38619e-08 -1 -1 4.35614e-08 1372.22 250.002)" fill="#5E2608"/>
<rect width="113" height="78.2724" rx="7" transform="matrix(-4.38619e-08 -1 -1 4.35614e-08 1366.2 244.002)" fill="#B3480F"/>
<rect width="125" height="90.3099" transform="matrix(-4.38619e-08 -1 -1 4.35614e-08 1281.91 250.002)" fill="#5E2608"/>
<rect width="113" height="78.2724" rx="7" transform="matrix(-4.38619e-08 -1 -1 4.35614e-08 1275.89 244.002)" fill="#AA440E"/>
<ellipse cx="1523.54" cy="2172.75" rx="15.0516" ry="15" fill="#493D36"/>
<defs>
<radialGradient id="paint0_radial_959_33656" cx="0" cy="0" r="1" gradientUnits="userSpaceOnUse" gradientTransform="translate(1528.71 2111.54) rotate(-90) scale(45.9785 50.0234)">
<stop offset="0.353452" stop-color="#573C23"/>
<stop offset="1" stop-color="#69492A"/>
</radialGradient>
</defs>
</svg>
