<svg width="147" height="171" viewBox="0 0 147 171" fill="none" xmlns="http://www.w3.org/2000/svg">
<path d="M58.2344 40.1834L58.2344 5.42947C58.2344 2.5784 55.9237 0.269531 53.0726 0.269531C50.2215 0.269531 47.909 2.5784 47.909 5.42947L47.909 40.1834C47.909 43.0345 50.2215 45.3434 53.0726 45.3434C55.9237 45.3434 58.2344 43.0345 58.2344 40.1834Z" fill="#333333"/>
<path d="M96.2363 40.4123L96.2363 5.20063C96.2363 2.47769 94.0282 0.269531 91.3052 0.269531L90.842 0.269531C88.1191 0.269531 85.9109 2.47769 85.9109 5.20063L85.9109 40.4123C85.9109 43.1352 88.1191 45.3434 90.842 45.3434L91.3052 45.3434C94.0282 45.3434 96.2363 43.1352 96.2363 40.4123Z" fill="#333333"/>
<path d="M91.4681 0.222658L53.4016 0.222656C52.913 0.222656 52.5176 0.619942 52.5176 1.10848L52.5176 6.83683C52.5176 7.32537 52.913 7.71527 53.4016 7.71527L91.4681 7.71528C91.9567 7.71528 92.3539 7.32537 92.3539 6.83683L92.3539 1.10848C92.3539 0.619943 91.9567 0.222658 91.4681 0.222658Z" fill="#333333"/>
<path d="M58.7676 130.528L58.7676 165.281C58.7676 168.133 56.4569 170.441 53.6058 170.441C50.7547 170.441 48.4422 168.133 48.4422 165.281L48.4422 130.528C48.4422 127.676 50.7547 125.368 53.6058 125.368C56.4569 125.368 58.7676 127.676 58.7676 130.528Z" fill="#333333"/>
<path d="M96.7676 130.299L96.7676 165.51C96.7676 168.233 94.5594 170.441 91.8365 170.441L91.3733 170.441C88.6503 170.441 86.4422 168.233 86.4422 165.51L86.4422 130.299C86.4422 127.576 88.6503 125.368 91.3733 125.368L91.8365 125.368C94.5594 125.368 96.7676 127.576 96.7676 130.299Z" fill="#333333"/>
<path d="M91.9994 170.488L53.9328 170.488C53.4443 170.488 53.0488 170.091 53.0488 169.602L53.0488 163.874C53.0488 163.386 53.4443 162.996 53.9328 162.996L91.9994 162.996C92.4879 162.996 92.8852 163.386 92.8852 163.874L92.8852 169.602C92.8852 170.091 92.4879 170.488 91.9994 170.488Z" fill="#333333"/>
<path d="M132.9 132.136L132.9 40.0179C132.9 32.1598 126.53 25.793 118.672 25.793L26.5532 25.793C18.6951 25.793 12.3264 32.1598 12.3264 40.0179L12.3264 132.136C12.3264 139.995 18.6951 146.369 26.5532 146.369L118.672 146.369C126.53 146.369 132.9 139.995 132.9 132.136Z" fill="#333333"/>
<path d="M5.47564 85.7554C5.47564 123.317 35.9257 153.765 73.4868 153.765C111.048 153.765 141.498 123.317 141.498 85.7554C141.498 48.1943 111.048 17.7461 73.4868 17.7461C35.9257 17.7461 5.47565 48.1943 5.47564 85.7554Z" fill="#8C1010" stroke="#5E0000" stroke-width="9.69449" stroke-linecap="square"/>
<path d="M80.0078 105.895L80.0078 64.7259C80.0078 61.8748 77.6971 59.5586 74.846 59.5586L70.1696 59.5586C67.3185 59.5586 65.0078 61.8748 65.0078 64.7259L65.0078 105.895C65.0078 108.746 67.3185 111.062 70.1696 111.062L74.846 111.062C77.6971 111.062 80.0078 108.746 80.0078 105.895Z" fill="#4D4D4D" stroke="#262626" stroke-width="7.42677" stroke-linecap="square"/>
<path d="M25.1255 84.9092C25.1255 91.06 30.1122 96.0485 36.263 96.0485C42.4137 96.0485 47.4004 91.06 47.4004 84.9092C47.4004 78.7585 42.4137 73.7773 36.263 73.7773C30.1122 73.7773 25.1255 78.7585 25.1255 84.9092Z" fill="#4D4D4D" stroke="#262626" stroke-width="7.42677" stroke-linecap="square"/>
<path d="M132.014 104.524L132.014 65.9534C132.014 65.6246 131.746 65.3555 131.418 65.3555L126.57 65.3555C126.241 65.3555 125.975 65.6246 125.975 65.9534L125.975 104.524C125.975 104.853 126.241 105.114 126.57 105.114L131.418 105.114C131.746 105.114 132.014 104.853 132.014 104.524Z" fill="#B3B3B3" stroke="#404040" stroke-width="3.18995" stroke-linecap="square"/>
</svg>
