<svg width="146" height="140" viewBox="0 0 146 140" fill="none" xmlns="http://www.w3.org/2000/svg">
<path d="M124.688 86.9305C124.688 58.7116 101.812 35.8356 73.5928 35.8356C45.3739 35.8356 22.498 58.7116 22.498 86.9305C22.498 115.149 45.3739 138.025 73.5928 138.025C101.812 138.025 124.688 115.149 124.688 86.9305Z" fill="#312114"/>
<path d="M115.595 86.9181C115.595 63.9315 96.9611 45.2972 73.9745 45.2972C50.9878 45.2972 32.3535 63.9315 32.3535 86.9181C32.3535 109.905 50.9878 128.539 73.9745 128.539C96.9611 128.539 115.595 109.905 115.595 86.9181Z" fill="#402A1A"/>
<path d="M91.6653 87.6098C91.6653 77.2401 83.259 68.8338 72.8893 68.8338C62.5196 68.8338 54.1133 77.2401 54.1133 87.6098C54.1133 97.9794 62.5196 106.386 72.8893 106.386C83.259 106.386 91.6653 97.9794 91.6653 87.6098Z" fill="#312114"/>
<path d="M87.5729 87.4499C87.5729 79.4129 81.0578 72.8978 73.0208 72.8978C64.9839 72.8978 58.4688 79.4129 58.4688 87.4499C58.4688 95.4868 64.9839 102.002 73.0208 102.002C81.0578 102.002 87.5729 95.4868 87.5729 87.4499Z" fill="#6D4A2C"/>
<path opacity="0.95" d="M145.243 82.3615C145.243 51.2931 120.143 26.1076 89.1803 26.1076C58.2174 26.1076 33.1172 51.2931 33.1172 82.3615C33.1172 113.43 58.2174 138.615 89.1803 138.615C120.143 138.615 145.243 113.43 145.243 82.3615Z" fill="#416631" fill-opacity="0.897792"/>
<path opacity="0.95" d="M102.223 49.2544C102.223 22.2686 80.4206 0.392586 53.5264 0.392586C26.6322 0.392586 4.83008 22.2686 4.83008 49.2544C4.83008 76.2402 26.6322 98.1162 53.5264 98.1162C80.4206 98.1162 102.223 76.2402 102.223 49.2544Z" fill="#416631" fill-opacity="0.897792"/>
<path opacity="0.8" d="M77.9851 100.264C77.9851 78.7948 60.6668 61.391 39.3032 61.391C17.9396 61.391 0.621094 78.7948 0.621094 100.264C0.621094 121.733 17.9396 139.138 39.3032 139.138C60.6668 139.138 77.9851 121.733 77.9851 100.264Z" fill="#497237" fill-opacity="0.902548"/>
<path d="M95.5542 85.9108C98.1818 71.1386 91.2719 39.1847 73.5739 48.5757C56.7723 59.4921 81.3553 81.0429 95.5466 85.9158L95.55 85.9229C95.55 85.9202 95.5526 85.9143 95.5542 85.9108Z" fill="#588A42"/>
<path d="M128.135 62.6988L128.121 62.6954C116.965 46.6431 81.2397 23.5588 73.5734 48.5751C68.1344 74.1689 110.572 71.3263 128.117 62.7066L128.131 62.7102C128.129 62.7089 128.127 62.7066 128.124 62.7031C128.127 62.7022 128.131 62.6996 128.135 62.6988Z" fill="#609648"/>
<path d="M10.4755 68.1649L10.4825 68.1668C18.9658 80.5417 46.2972 98.4808 52.3328 79.3748C56.6586 59.811 24.0198 61.682 10.4852 68.1571C10.4826 68.159 10.479 68.1649 10.4755 68.1649Z" fill="#588A42"/>
<path d="M3.52925 107.56L3.53979 107.553C22.7482 111.177 64.4061 102.588 52.333 79.3751C38.2663 57.3133 9.99945 89.0956 3.53409 107.542L3.52344 107.549C3.52559 107.549 3.53054 107.55 3.53054 107.55C3.52821 107.554 3.52946 107.556 3.52925 107.56Z" fill="#609648"/>
<path d="M61.333 112.947L61.3308 112.939C66.8736 101.991 68.7393 75.7154 52.3335 79.3764C36.2951 84.4086 51.0496 106.231 61.3232 112.941C61.3243 112.942 61.3295 112.942 61.333 112.947Z" fill="#588A42"/>
</svg>
