<svg width="1416" height="2087" viewBox="0 0 1416 2087" fill="none" xmlns="http://www.w3.org/2000/svg">
<rect x="0.103516" y="1566.01" width="37.4961" height="520.274" fill="#471C06"/>
<rect width="37.4961" height="154.975" transform="matrix(1 0 0 -1 0.103516 746.463)" fill="#471C06"/>
<rect width="37.4961" height="244.552" transform="matrix(1 0 0 -1 0.103516 1191.01)" fill="#471C06"/>
<rect x="1377.6" y="1370.66" width="37.4961" height="26.0908" fill="#471C06"/>
<rect x="1377.6" y="591.488" width="37.4961" height="579.176" fill="#471C06"/>
<rect x="772.1" y="2048.79" width="605.805" height="37.5" fill="#471C06"/>
<rect x="37.5996" y="2048.79" width="534.5" height="37.5" fill="#471C06"/>
<rect width="37.5" height="487.521" transform="matrix(1 0 0 -1 1377.9 2086.29)" fill="#471C06"/>
<rect x="1386.9" y="1607.77" width="19.5" height="469.521" rx="7" fill="#A6633F"/>
<rect x="777.104" y="2057.79" width="629.3" height="19.5" rx="7" fill="#A6633F"/>
<rect x="9.10352" y="2057.79" width="558" height="19.5" rx="7" fill="#A6633F"/>
<rect x="46.5996" y="0.488281" width="1322" height="39.5" fill="#363230"/>
<rect x="9.10156" y="600.488" width="19.5" height="140.97" rx="7" fill="#A6633F"/>
<rect x="9.10156" y="951.463" width="19.5" height="230.56" rx="7" fill="#A6633F"/>
<rect x="46.5996" y="0.488281" width="39.5" height="619.5" fill="#363230"/>
<rect x="55.5996" y="9.48828" width="21.5" height="601.5" rx="7" fill="#78716D"/>
<rect x="1386.6" y="600.488" width="19.5" height="565.18" rx="7" fill="#A6633F"/>
<rect x="1386.6" y="1375.66" width="19.5" height="12.09" rx="6.045" fill="#A6633F"/>
<rect x="37.5996" y="1755.87" width="369.826" height="37.5" fill="#2C2521"/>
<rect x="9.10156" y="1764.87" width="389.32" height="19.5" rx="7" fill="#846E62"/>
<rect x="9.10156" y="1575.01" width="19.5" height="502.27" rx="7" fill="#A6633F"/>
<rect x="1329.1" y="0.488281" width="39.5" height="619.5" fill="#363230"/>
<rect x="1338.1" y="9.48828" width="21.5" height="601.5" rx="7" fill="#78716D"/>
<rect x="57.6973" y="9.48828" width="1299.8" height="21.5" rx="7" fill="#78716D"/>
<path d="M37.5996 591.488H611.6L628.094 595.31L615.219 604.918L625.861 609.964L619.86 616.524L625.861 625.177L611.6 628.988H37.5996V591.488Z" fill="#471C06"/>
<path d="M9.10156 607.488C9.10156 603.622 12.2356 600.488 16.1016 600.488H607.597V619.988H16.1016C12.2356 619.988 9.10156 616.854 9.10156 612.988V607.488Z" fill="#A6633F"/>
<path d="M803.603 591.488H1377.6V628.988H803.603L787.342 625.038L799.066 615.687L785.528 609.267L792.785 602.428L784.133 595.031L803.603 591.488Z" fill="#471C06"/>
<path d="M807.596 600.488H1399.1C1402.97 600.488 1406.1 603.622 1406.1 607.488V612.988C1406.1 616.854 1402.97 619.988 1399.1 619.988H807.596V600.488Z" fill="#A6633F"/>
</svg>
