<svg width="231" height="245" viewBox="0 0 231 245" fill="none" xmlns="http://www.w3.org/2000/svg">
<circle cx="113.443" cy="131.705" r="105" fill="#404936" stroke="#333B2B" stroke-width="16"/>
<path d="M68.9998 45.989C70.9601 45.1987 73.0713 44.4478 75.3446 43.751C75.152 43.9688 74.89 44.1914 74.5667 44.424C74.1477 44.7254 73.5898 45.0688 72.8671 45.4624C70.5206 46.7418 69.5137 48.1187 69.0925 49.2069C68.6677 50.3044 68.8126 51.2037 68.8957 51.5338C68.9664 51.8149 68.8594 52.1128 68.6635 52.301C68.4615 52.4949 68.1247 52.5774 67.8157 52.4648L67.8353 52.4726C67.3143 52.2719 66.9403 51.6802 66.7251 50.6995C66.6483 50.3528 66.6935 49.9925 66.7815 49.6653C66.8711 49.3318 67.0178 48.9859 67.1921 48.6462C67.5405 47.9669 68.0327 47.2479 68.5213 46.6019C68.6812 46.3904 68.8423 46.1849 68.9998 45.989Z" fill="#3B3635" stroke="#363130" stroke-width="1.25698" stroke-miterlimit="3.99393"/>
<path d="M73.0477 44.4901C73.032 44.5814 73.0165 44.6759 73.0015 44.7728C72.9428 45.1516 72.8907 45.5748 72.8706 45.9793C72.851 46.3736 72.859 46.7946 72.9436 47.1491C73.0858 47.7445 73.39 48.5329 73.7743 49.2279C73.9674 49.5772 74.1893 49.9185 74.433 50.2064C74.6703 50.4867 74.9623 50.757 75.3053 50.9093C75.4388 50.9685 75.5729 51.0168 75.7039 51.0428C75.826 51.067 76.0082 51.0847 76.1984 51.0145C76.4252 50.9308 76.5794 50.7534 76.6455 50.5494C76.7008 50.3788 76.6847 50.2236 76.6691 50.1348C76.6375 49.9543 76.3305 49.4349 76.232 49.2965C76.1998 49.2514 76.1683 49.2089 76.1361 49.1654C76.0694 49.0756 75.9998 48.9817 75.9159 48.8528C75.6652 48.4672 75.3742 47.9327 75.1922 47.32C75.0107 46.7089 74.9432 46.0402 75.1115 45.3659C75.2632 44.7577 75.6171 44.103 76.3281 43.4546C75.1961 43.787 74.1031 44.1327 73.0477 44.4901Z" fill="#403B3A" stroke="#363130" stroke-width="1.25698" stroke-miterlimit="3.99393"/>
<path d="M82.8066 46.5238C82.6908 45.1721 82.1615 44.1807 81.3433 43.5273C80.5545 42.8975 80.3006 42.5715 79.7625 42.2949L77.4178 43.3632C78.0436 43.4126 79.771 44.7153 80.1518 45.0194C80.5033 45.3001 80.8263 45.7787 80.9042 46.6868C81.0648 48.5605 80.1801 49.9519 79.1707 50.9245C78.6666 51.4102 77.7216 52.1218 77.1963 52.326C76.7041 52.5172 75.2381 52.8081 74.4291 53.0008C72.8069 53.3873 70.822 53.843 69.332 54.131C67.9327 54.4015 67.0923 54.0615 66.7251 53.9416C66.4789 53.8612 65.6408 53.2066 65.3109 52.9015C64.652 52.2921 63.7733 51.4922 62.901 50.7375C61.7507 49.7421 61.2253 48.9774 61.2253 48.9774L59.9041 50.6709C59.9041 50.6709 61.0796 51.6865 61.6516 52.1814C62.5017 52.917 63.3634 53.7012 64.0144 54.3033C64.3394 54.6039 64.9192 55.1726 65.1214 55.3378C65.3149 55.4959 65.827 55.8511 66.2052 55.9746C66.9602 56.2212 68.0707 56.3196 69.6944 56.0058C71.2274 55.7095 73.246 55.2455 74.8716 54.8583L74.9227 54.8461C75.7548 54.648 77.3803 54.2609 77.9207 53.9869C78.4724 53.7072 79.8674 52.9048 80.4955 52.2995C81.7506 51.0902 83.0335 49.1697 82.8066 46.5238Z" fill="#433E3D" stroke="#363130" stroke-width="1.25698" stroke-miterlimit="3.99393" stroke-linecap="round"/>
<path d="M85.4084 25.1086C85.4084 25.1086 73.7583 28.6003 69.3659 31.0294C69.1028 31.1775 68.8027 31.2598 68.489 31.2718C68.1284 31.2929 67.5524 31.3313 66.6906 31.4007C64.85 31.562 64.3449 32.2187 64.3449 32.2187C64.3449 32.2187 62.5977 33.1156 63.5854 34.5777C64.573 36.0399 69.4896 32.1724 69.4896 32.1724L86.0199 28.2722L85.4084 25.1086Z" fill="#403B3A" stroke="#363130" stroke-width="1.25698" stroke-miterlimit="3.99393" stroke-linecap="round"/>
<path d="M74.8858 30.9113C74.8858 30.9113 71.6021 31.2786 68.9507 33.0309C66.2993 34.7832 43.4943 47.724 43.4943 47.724C43.4943 47.724 29.8896 56.6985 30.1202 68.8331C30.1202 68.8331 30.507 72.7209 36.6467 71.5341C42.7865 70.3473 43.8863 67.485 43.8863 67.485C43.8863 67.485 48.8982 51.0309 77.9094 43.284L75.4906 30.7701L74.8858 30.9113Z" fill="#5C342B"/>
<path d="M61.4468 37.4591C58.7353 39.025 55.6623 40.7863 52.8349 42.402C53.3659 41.7257 54.7852 39.8735 55.1403 38.9561L58.1106 37.8359C58.1106 37.8359 58.3726 36.028 60.2522 35.8038C61.1141 35.7037 61.3942 36.5371 61.4468 37.4591Z" fill="#524A48" stroke="#363130" stroke-width="1.25698" stroke-miterlimit="3.99393" stroke-linecap="round"/>
<path d="M47.5906 45.4028C47.5906 45.4028 35.9927 51.68 33.5421 57.8665C33.5421 57.8665 44.4678 64.3359 49.102 59.2589C53.7362 54.1819 63.3723 48.6971 63.3723 48.6971L55.5102 48.3936L60.7775 41.687C60.8244 41.6779 56.5337 39.2255 47.5906 45.4028Z" fill="#5C3B2B" stroke="#452D21" stroke-width="1.25698" stroke-miterlimit="3.99393" stroke-linecap="round"/>
<path d="M74.8858 30.9113C74.8858 30.9113 71.6021 31.2786 68.9507 33.0309C66.2993 34.7832 43.4943 47.724 43.4943 47.724C43.4943 47.724 29.8896 56.6985 30.1202 68.8331C30.1202 68.8331 30.507 72.7209 36.6467 71.5341C42.7865 70.3473 43.8863 67.485 43.8863 67.485C43.8863 67.485 48.8982 51.0309 77.9094 43.284L75.4906 30.7701L74.8858 30.9113Z" stroke="#462720" stroke-width="2.51397" stroke-miterlimit="3.99393" stroke-linecap="round"/>
<path d="M84.0339 28.4393L75.4901 30.7714L77.909 43.2852C77.909 43.2852 108.628 36.4481 110.662 34.5233L109.551 28.7765L87.1114 33.9218C87.1114 33.9218 85.1526 34.9811 84.0339 28.4393Z" fill="#5D5655" stroke="#363130" stroke-width="2.51" stroke-miterlimit="3.99393" stroke-linecap="round"/>
<path d="M80.222 40.9171C80.5196 40.8596 80.7143 40.5717 80.6568 40.274C80.5992 39.9763 80.3113 39.7816 80.0136 39.8392C79.7159 39.8967 79.5213 40.1847 79.5788 40.4823C79.6363 40.78 79.9243 40.9747 80.222 40.9171Z" fill="#7E7472"/>
<path d="M85.2912 38.8444C85.6795 38.7693 85.9334 38.3937 85.8583 38.0055C85.7833 37.6172 85.4077 37.3633 85.0194 37.4383C84.6312 37.5134 84.3772 37.889 84.4523 38.2772C84.5273 38.6655 84.9029 38.9194 85.2912 38.8444Z" fill="#7E7472"/>
<path d="M102.934 30.8451C102.818 30.8708 102.699 30.8994 102.578 30.9309C102.578 30.9309 103.075 36.4036 97.9435 38.423L96.1981 38.9223C96.8423 38.7978 97.422 38.6282 97.9435 38.423L108.776 35.3242C108.776 35.3242 108.674 29.8766 103.377 30.7589L102.934 30.8451Z" fill="#585150"/>
<path d="M97.9435 38.423C103.075 36.4036 102.578 30.9309 102.578 30.9309C102.699 30.8994 102.818 30.8708 102.934 30.8451L103.377 30.7589C108.674 29.8766 108.776 35.3242 108.776 35.3242L97.9435 38.423ZM97.9435 38.423L96.1981 38.9223M97.9435 38.423C97.422 38.6282 96.8423 38.7978 96.1981 38.9223M96.1981 38.9223L96.8375 38.7987" stroke="#363130" stroke-width="1.25698" stroke-miterlimit="3.99393" stroke-linecap="round"/>
<path d="M85.2634 24.3604L87.1116 33.9216C85.255 34.3777 84.8358 32.5868 84.1609 29.095C83.486 25.6035 85.2634 24.3604 85.2634 24.3604Z" fill="#484342" stroke="#363130" stroke-width="1.25698"/>
<path d="M179.042 39.0027C179.042 39.0027 177.16 37.926 174.29 40.0269C171.421 42.1278 169.98 43.2713 171.185 44.7555C172.39 46.2397 223.47 112.288 223.47 112.288C223.47 112.288 226.626 111.751 229.035 108.213L179.042 39.0027Z" fill="#514B49" stroke="#363130" stroke-width="2.51" stroke-miterlimit="3.99393" stroke-linecap="round"/>
<path d="M184.794 63.3139L180.692 66.3172C180.692 66.3172 213.024 105.062 217.281 107.684C217.281 107.684 219.907 109.696 217.974 106.289L185.911 62.4961L184.794 63.3139Z" fill="#5C342B"/>
<path d="M187.186 73.8072L187.864 69.6426L210.755 101.189L187.186 73.8072Z" fill="#5C3B2B" stroke="#362219" stroke-width="1.25698" stroke-miterlimit="3.99393" stroke-linecap="round"/>
<path d="M184.794 63.308L180.692 66.3113C180.692 66.3113 213.024 105.056 217.281 107.678C217.281 107.678 219.907 109.69 217.974 106.283L185.911 62.4902L184.794 63.308Z" stroke="#462720" stroke-width="2.51397" stroke-miterlimit="3.99393" stroke-linecap="round"/>
<path d="M144.665 56.2333C159.309 62.2995 173.872 63.7401 184.139 60.9849L113.422 131.703L113.424 31.7363C118.747 40.9278 130.047 50.1779 144.665 56.2333Z" fill="#DF4F20"/>
<path d="M188.878 100.431C194.944 115.076 204.217 126.392 213.424 131.704H113.424L184.107 61.0176C181.373 71.2805 182.824 85.8135 188.878 100.431Z" fill="#E4D3CD"/>
<path d="M188.888 162.947C182.823 177.59 181.377 192.149 184.132 202.416L113.422 131.703L213.384 131.704C204.192 137.027 194.942 148.329 188.888 162.947Z" fill="#DF4F20"/>
<path d="M144.691 207.16C130.049 213.225 118.732 222.497 113.421 231.704L113.42 131.703L184.104 202.389C173.841 199.653 159.308 201.105 144.691 207.16Z" fill="#E4D3CD"/>
<path d="M82.1791 207.172C67.5353 201.107 52.9774 199.661 42.7109 202.416L113.422 131.703V231.671C108.099 222.478 96.7965 213.227 82.1791 207.172Z" fill="#DF4F20"/>
<path d="M37.9679 162.973C31.9029 148.33 22.6316 137.013 13.4238 131.702L113.422 131.701L42.7378 202.388C45.4743 192.124 44.0221 177.591 37.9679 162.973Z" fill="#E4D3CD"/>
<path d="M37.9561 100.46C44.0211 85.8183 45.4675 71.261 42.7134 60.9941L113.421 131.705H13.459C22.6512 126.382 31.9019 115.079 37.9561 100.46Z" fill="#DF4F20"/>
<path d="M82.1507 56.248C96.7926 50.1828 108.108 40.9122 113.42 31.7051L113.421 131.704L42.7363 61.0181C52.9989 63.7547 67.5333 62.3034 82.1507 56.248Z" fill="#E4D3CD"/>
<path d="M82.1527 56.248C96.7946 50.1828 108.112 40.9435 113.424 31.7363C118.747 40.9278 130.047 50.1779 144.665 56.2333C159.31 62.2995 173.841 63.7733 184.107 61.0181C181.373 71.281 182.824 85.814 188.878 100.432C194.944 115.076 204.217 126.393 213.424 131.704C204.233 137.027 194.943 148.329 188.889 162.946C182.824 177.589 181.35 192.123 184.106 202.39C173.842 199.654 159.31 201.106 144.692 207.161C130.05 213.226 118.733 222.461 113.422 231.668C108.099 222.476 96.7966 213.226 82.1801 207.171C67.5363 201.106 53.0048 199.633 42.7383 202.388C45.4749 192.124 44.0226 177.591 37.9684 162.973C31.9034 148.33 22.6707 137.013 13.4629 131.702C22.654 126.378 31.9032 115.076 37.9567 100.459C44.0216 85.8179 45.468 71.2605 42.7139 60.9937C52.9765 63.7303 67.5353 62.3034 82.1527 56.248Z" stroke="#542212" stroke-width="13"/>
<rect x="108.943" y="34.1934" width="9" height="195.023" fill="#542212"/>
<rect width="9.0009" height="195.02" transform="matrix(0.707095 0.707119 -0.707095 0.707119 179.209 59.5703)" fill="#542212"/>
<rect x="210.951" y="127.203" width="9.00105" height="195.016" transform="rotate(90 210.951 127.203)" fill="#542212"/>
<rect width="9.0009" height="195.02" transform="matrix(-0.707095 0.707119 -0.707095 -0.707119 185.574 197.473)" fill="#542212"/>
<path d="M113.42 141.202C118.667 141.202 122.92 136.948 122.92 131.702C122.92 126.455 118.667 122.201 113.42 122.201C108.173 122.201 103.92 126.455 103.92 131.702C103.92 136.948 108.173 141.202 113.42 141.202Z" fill="#D1AC61" stroke="#4F3C17" stroke-width="9"/>
</svg>
