<svg width="64" height="49" viewBox="0 0 64 49" fill="none" xmlns="http://www.w3.org/2000/svg">
<path d="M16.9687 48.5391L47.9687 48.5391C56.8053 48.5391 63.9687 41.3756 63.9687 32.5391L63.9687 16.5391C63.9687 7.7025 56.8053 0.539074 47.9687 0.539075L16.9687 0.539076C8.13216 0.539076 0.96876 7.70251 0.96876 16.5391L0.968761 32.5391C0.968761 41.3756 8.13216 48.5391 16.9687 48.5391Z" fill="#3C332A"/>
<path d="M16.9629 39.5332L47.9629 39.5332C51.8289 39.5332 54.9629 36.3992 54.9629 32.5332L54.9629 16.5332C54.9629 12.6672 51.8289 9.5332 47.9629 9.5332L16.9629 9.5332C13.0969 9.5332 9.96289 12.6672 9.96289 16.5332L9.96289 32.5332C9.96289 36.3992 13.0969 39.5332 16.9629 39.5332Z" fill="#C9BDB1"/>
</svg>
