<svg width="91" height="90" viewBox="0 0 91 90" fill="none" xmlns="http://www.w3.org/2000/svg">
<path d="M79.4349 74.2604L11.4349 74.2604L9.17206 16.0491C8.95161 10.3782 13.4893 5.66068 19.1645 5.66068L71.7053 5.66068C77.3805 5.66068 81.9182 10.3782 81.6977 16.0491L79.4349 74.2604Z" fill="#3B4332" stroke="#333B2B" stroke-width="10"/>
<path d="M85.4355 80.9165C85.4355 81.9167 84.6997 82.7572 83.7048 82.8606C79.4545 83.3023 67.2305 84.3291 45.4355 84.3291C23.6406 84.3291 11.4166 83.3023 7.16625 82.8606C6.17138 82.7572 5.43555 81.9167 5.43555 80.9164L5.43555 71.493C5.43555 70.3265 6.425 69.4055 7.5886 69.4885C13.4321 69.9053 30.1764 70.9958 45.4355 70.9958C60.6947 70.9958 77.4389 69.9053 83.2825 69.4885C84.4461 69.4055 85.4355 70.3265 85.4355 71.493L85.4355 80.9165Z" fill="#454F3B" stroke="#333B2B" stroke-width="10"/>
</svg>
