<svg width="51" height="83" viewBox="0 0 51 83" fill="none" xmlns="http://www.w3.org/2000/svg">
<circle cx="25.0859" cy="57.8486" r="22.5" fill="#78736D" stroke="#353331" stroke-width="5"/>
<path d="M7.58594 0.349609H42.5859V11.3496C42.5859 13.5587 40.7951 15.3496 38.5859 15.3496H11.5859C9.3768 15.3496 7.58594 13.5587 7.58594 11.3496V0.349609Z" fill="#353331"/>
<path d="M12.5859 0.349609H37.5859V6.34961C37.5859 8.55875 35.7951 10.3496 33.5859 10.3496H16.5859C14.3768 10.3496 12.5859 8.55875 12.5859 6.34961V0.349609Z" fill="#5E5955"/>
<path d="M15.0859 0.349609H35.0859V55.3496C35.0859 60.8725 30.6088 65.3496 25.0859 65.3496V65.3496C19.5631 65.3496 15.0859 60.8725 15.0859 55.3496V0.349609Z" fill="#363330"/>
<path d="M20.0859 0.349609H30.0859V55.3496C30.0859 58.111 27.8474 60.3496 25.0859 60.3496V60.3496C22.3245 60.3496 20.0859 58.111 20.0859 55.3496V0.349609Z" fill="#928C87"/>
</svg>
