<svg width="123" height="165" viewBox="0 0 123 165" fill="none" xmlns="http://www.w3.org/2000/svg">
<path d="M0.5 7.84742C0.5 3.98142 3.63401 0.847412 7.5 0.847412H122.5V164.847H7.5C3.63401 164.847 0.5 161.713 0.5 157.847V7.84742Z" fill="#272727"/>
<path d="M9.5 16.8474C9.5 12.9814 12.634 9.84741 16.5 9.84741H122.5V155.847H16.5C12.634 155.847 9.5 152.713 9.5 148.847V16.8474Z" fill="#E5E0DB"/>
<rect x="16.4453" y="17.8474" width="80" height="130" rx="7" fill="#BDB9B3"/>
<circle cx="56.4453" cy="82.8474" r="10" fill="#494949"/>
<path d="M72.5 69.3474C72.5 67.1383 74.2909 65.3474 76.5 65.3474H122.5V100.347H76.5C74.2909 100.347 72.5 98.5566 72.5 96.3474V69.3474Z" fill="#272727"/>
<path d="M77.5 74.3474C77.5 72.1383 79.2909 70.3474 81.5 70.3474H122.5V95.3474H81.5C79.2909 95.3474 77.5 93.5566 77.5 91.3474V74.3474Z" fill="#D0C7BE"/>
</svg>
