<svg width="188" height="55" viewBox="0 0 188 55" fill="none" xmlns="http://www.w3.org/2000/svg">
<rect x="150.756" y="52.2754" width="50" height="20" transform="rotate(-90 150.756 52.2754)" fill="#D5DDDB" stroke="#2E3836" stroke-width="4.5"/>
<rect x="-0.00195312" y="42.2754" width="30" height="187.5" rx="4" transform="rotate(-90 -0.00195312 42.2754)" fill="#293D3A"/>
<path d="M11.8984 34.875C9.41316 34.875 7.39844 32.8603 7.39844 30.375L7.39844 24.1758C7.39844 21.6905 9.41316 19.6758 11.8984 19.6758L16.3984 19.6758L16.3984 34.875L11.8984 34.875Z" fill="#C2D6D3"/>
<path d="M138.857 34.875L138.857 19.6758L175.598 19.6758C178.083 19.6758 180.098 21.6905 180.098 24.1758L180.098 30.375C180.098 32.8603 178.083 34.875 175.598 34.875L138.857 34.875Z" fill="#C2D6D3"/>
<rect opacity="0.8" x="16.3984" y="34.875" width="15.1992" height="122.459" transform="rotate(-90 16.3984 34.875)" fill="#66CCBB"/>
</svg>
