<svg width="155" height="321" viewBox="0 0 155 321" fill="none" xmlns="http://www.w3.org/2000/svg">
<rect x="7.76758" y="7.08984" width="140" height="306.231" rx="9" fill="#ECECEC" stroke="#341610" stroke-width="14"/>
<path d="M117.768 7.08984H37.7676C32.2447 7.08984 27.7676 11.567 27.7676 17.0899V67.0898C27.7676 72.6127 32.2447 77.0898 37.7676 77.0898H117.768C123.29 77.0898 127.768 72.6127 127.768 67.0898V17.0899C127.768 11.567 123.29 7.08984 117.768 7.08984Z" fill="#CCCCCC"/>
<path d="M115.268 14.5898H40.2676C37.5062 14.5898 35.2676 16.8284 35.2676 19.5898V64.5898C35.2676 67.3513 37.5062 69.5898 40.2676 69.5898H115.268C118.029 69.5898 120.268 67.3513 120.268 64.5898V19.5898C120.268 16.8284 118.029 14.5898 115.268 14.5898Z" fill="#E6E6E6"/>
<rect x="7.74316" y="88.3242" width="140" height="224.997" rx="8" fill="#813627"/>
</svg>
