<svg width="149" height="188" viewBox="0 0 149 188" fill="none" xmlns="http://www.w3.org/2000/svg">
<path d="M36.9375 26.1797V148.362C36.9375 158.471 40.2495 166.666 44.335 166.666H132.546C136.632 166.666 139.944 158.471 139.944 148.362V26.1797H36.9375Z" fill="#800000"/>
<path d="M51.167 156.48H126.987C130.499 156.48 133.346 152.838 133.346 148.346V39.7435C133.346 35.2508 130.499 31.6087 126.987 31.6087H51.167C47.6554 31.6087 44.8086 35.2508 44.8086 39.7435V148.346C44.8086 152.838 47.6554 156.48 51.167 156.48Z" fill="#AA0000"/>
<path d="M7.20468 187.855H141.899C145.62 187.855 148.637 184.839 148.637 181.117V160.258C148.637 156.537 145.62 153.52 141.899 153.52H7.20468C3.48338 153.52 0.46669 156.537 0.46669 160.258V181.117C0.46669 184.839 3.48338 187.855 7.20468 187.855Z" fill="#800000"/>
<path d="M7.20468 34.5684H141.899C145.62 34.5684 148.637 31.5516 148.637 27.8303V6.97099C148.637 3.24967 145.62 0.232941 141.899 0.232941H7.20468C3.48338 0.232941 0.46669 3.24967 0.46669 6.97099V27.8303C0.46669 31.5516 3.48338 34.5684 7.20468 34.5684Z" fill="#800000"/>
<path d="M12.9324 183.129H136.173C140.258 183.129 143.57 180.155 143.57 176.486V164.888C143.57 161.219 140.258 158.245 136.173 158.245H12.9324C8.84694 158.245 5.53497 161.219 5.53497 164.888V176.486C5.53497 180.155 8.84694 183.129 12.9324 183.129Z" fill="#AA0000"/>
<path d="M12.9324 29.8418H136.173C140.258 29.8418 143.57 26.8678 143.57 23.1992V11.6009C143.57 7.93231 140.258 4.95831 136.173 4.95831H12.9324C8.84694 4.95831 5.53497 7.93231 5.53497 11.6009V23.1992C5.53497 26.8678 8.84694 29.8418 12.9324 29.8418Z" fill="#AA0000"/>
<path d="M0.466797 14.9933V173.094C0.466797 181.246 7.07553 187.855 15.2278 187.855H22.9841C31.1364 187.855 37.7451 181.246 37.7451 173.094V14.9933C37.7451 6.84109 31.1364 0.232422 22.9841 0.232422H15.2278C7.07553 0.232422 0.466797 6.84109 0.466797 14.9933Z" fill="#800000"/>
<path d="M100.802 104.596C117.803 120.557 116.174 93.3161 90.8988 94.0256C61.5045 94.8505 98.441 86.2924 76.6742 105.273C57.9578 121.595 88.2798 118.508 88.9892 95.6906C89.8144 69.1545 97.1229 102.054 77.3514 83.4916C60.3507 67.5305 61.9799 94.7717 87.2548 94.0622C116.649 93.2373 79.7127 101.795 101.479 82.8144C120.196 66.4933 89.8739 69.5799 89.1644 92.3972C88.3393 118.933 81.0307 86.0337 100.802 104.596Z" fill="#800000" stroke="#800000" stroke-width="5.61907" stroke-linecap="round" stroke-linejoin="round"/>
<path d="M88.1499 98.3785C90.5043 98.3785 92.413 96.6437 92.413 94.5037C92.413 92.3637 90.5043 90.6289 88.1499 90.6289C85.7954 90.6289 83.8867 92.3637 83.8867 94.5037C83.8867 96.6437 85.7954 98.3785 88.1499 98.3785Z" stroke="#AA0000" stroke-width="14.74" stroke-linecap="round" stroke-linejoin="round"/>
<path d="M5.53516 17.674V170.415C5.53516 177.181 11.0207 182.667 17.7874 182.667H20.2992C27.0659 182.667 32.5514 177.181 32.5514 170.415V17.674C32.5514 10.9073 27.0659 5.42188 20.2992 5.42188H17.7874C11.0207 5.42188 5.53516 10.9073 5.53516 17.674Z" fill="#AA0000"/>
</svg>
