<svg width="164" height="157" viewBox="0 0 164 157" fill="none" xmlns="http://www.w3.org/2000/svg">
<path d="M127.471 44.0153L104.108 58.2456C104.009 58.1695 103.91 58.094 103.81 58.0192L109.342 37.2772L95.6452 53.1188L96.6355 37.3486L89.193 51.6069C89.0831 51.5987 88.9731 51.5911 88.8631 51.5841L78.3766 27.8257L79.5338 52.0441C79.2173 52.1076 78.9017 52.1762 78.5872 52.2501L72.2913 41.7439L75.6075 53.1552L57.9727 36.2644L64.6392 60.0954C64.4812 60.2458 64.3248 60.3979 64.1701 60.5516L50.507 51.0012L59.3806 62.4278L27.8851 54.4433L56.6118 71.7068L30.0157 74.0258L55.7136 80.5424L34.9389 93.1999L57.7938 91.1112C57.92 91.487 58.0541 91.8599 58.196 92.2297L42.2844 111.121L63.1162 100.953L56.8 115.411L65.5572 106.303L64.015 130.291L77.9778 108.262C78.4725 108.383 78.9707 108.49 79.4718 108.585L83.1848 124.312L88.533 109.987L101.415 138.526L97.649 106.75L111.901 120.231L103.638 101.511C103.759 101.405 103.879 101.299 103.998 101.191L130.781 108.926L111.529 90.4514C111.629 90.2003 111.726 89.9478 111.819 89.6942L123.941 90.1628L113.843 85.4746L146.033 82.5374L113.609 77.0476C113.58 76.7002 113.545 76.3536 113.503 76.0079L129.074 71.9988L112.274 70.505C112.25 70.4322 112.225 70.3595 112.2 70.2869L128.547 61.478L110.029 65.4587C109.886 65.2044 109.74 64.9523 109.59 64.7026L127.471 44.0153Z" fill="url(#paint0_radial_1178_96133)"/>
<path d="M105.557 29.0724L124.119 18.8613L129.356 30.6896L125.133 38.2873L117.508 31.9033L105.557 29.0724Z" fill="#8C1010"/>
<path d="M112.808 147.88L116.095 128.411L122.163 132.962L136.322 115.769L127.726 144.34L112.808 147.88Z" fill="#8C1010"/>
<path d="M16.2213 126.894L32.15 120.32L44.5398 121.837L39.7353 115.769L23.5533 112.988L16.2213 126.894Z" fill="#8C1010"/>
<path d="M7.11838 46.9953L26.5874 50.5351L19.6397 44.4878L24.7025 36.6287H3.83105L7.11838 46.9953Z" fill="#8C1010"/>
<path d="M105.557 29.0724L124.119 18.8613L129.356 30.6896L125.133 38.2873L117.508 31.9033L105.557 29.0724Z" stroke="#5E0000" stroke-width="5" stroke-linecap="square"/>
<path d="M112.808 147.88L116.095 128.411L122.163 132.962L136.322 115.769L127.726 144.34L112.808 147.88Z" stroke="#5E0000" stroke-width="5" stroke-linecap="square"/>
<path d="M16.2213 126.894L32.15 120.32L44.5398 121.837L39.7353 115.769L23.5533 112.988L16.2213 126.894Z" stroke="#5E0000" stroke-width="5" stroke-linecap="square"/>
<path d="M7.11838 46.9953L26.5874 50.5351L19.6397 44.4878L24.7025 36.6287H3.83105L7.11838 46.9953Z" stroke="#5E0000" stroke-width="5" stroke-linecap="square"/>
<defs>
<radialGradient id="paint0_radial_1178_96133" cx="0" cy="0" r="1" gradientUnits="userSpaceOnUse" gradientTransform="translate(85.7612 78.6108) rotate(49.7473) scale(55.8429 54.1877)">
<stop stop-opacity="0.9"/>
<stop offset="1" stop-opacity="0.3"/>
</radialGradient>
</defs>
</svg>
