<svg width="142" height="119" viewBox="0 0 142 119" fill="none" xmlns="http://www.w3.org/2000/svg">
<path d="M101.504 26.2946C104.887 18.3746 110.611 6.7954 111.398 6.69655C123.721 5.14712 134.575 2.90346 135.425 13.2389C136.181 22.4353 132.747 35.1413 131.42 35.1413C130.627 35.1413 119.861 37.0348 119.407 37.3816C114.326 41.2594 111.399 45.8945 106.779 42.984C106.239 42.6441 101.098 27.2463 101.504 26.2946Z" fill="#404936"/>
<path d="M10.4847 71.5328C8.70766 68.7421 17.6474 61.7673 20.3 53.3282C20.5381 52.571 27.7139 57.4214 31.8425 60.4394C39.2233 65.8347 43.1258 69.1096 47.6251 77.5062C47.8537 77.9329 43.5296 89.6565 44.2548 92.8968C44.3967 93.5304 34.081 91.0472 23.5979 87.1775C23.0142 86.962 11.0578 72.4329 10.4847 71.5328Z" fill="#404936"/>
<path d="M103.624 82.3419C103.555 81.9152 115.283 61.8932 116.816 62.715C123.917 66.5229 135.425 67.6489 135.425 68.6884C135.425 77.5022 136.728 82.5235 131.42 90.5908C131.177 90.9605 124.383 100.237 119.407 98.5554C118.367 98.2039 104.889 90.1613 103.624 82.3419Z" fill="#404936"/>
<path d="M86.6863 85.5604C86.8645 84.798 77.9744 72.7715 77.2949 73.2333C69.5489 78.4973 62.6387 76.419 57.367 84.1008C56.8806 84.8096 56.9933 106.88 57.367 107.747C61.3905 117.081 66.6053 116.374 77.2949 104.049C77.9994 103.237 83.5933 98.7981 86.6863 85.5604Z" fill="#404936"/>
<path d="M59.5532 4.74718C67.151 -0.776576 83.4385 7.83515 83.9421 9.12579C84.509 10.5788 78.209 36.7233 65.8153 37.3816C55.59 37.9247 40.4379 38.7959 40.4379 37.3816C40.4379 35.9673 51.6338 30.7481 57.367 20.3919C60.1516 15.3618 58.4341 5.56077 59.5532 4.74718Z" fill="#404936"/>
<path d="M101.504 26.2946C104.887 18.3746 110.611 6.7954 111.398 6.69655C123.721 5.14712 134.575 2.90346 135.425 13.2389C136.181 22.4353 132.747 35.1413 131.42 35.1413C130.627 35.1413 119.861 37.0348 119.407 37.3816C114.326 41.2594 111.399 45.8945 106.779 42.984C106.239 42.6441 101.098 27.2463 101.504 26.2946Z" stroke="#333B2B" stroke-width="5" stroke-linecap="square"/>
<path d="M10.4847 71.5328C8.70766 68.7421 17.6474 61.7673 20.3 53.3282C20.5381 52.571 27.7139 57.4214 31.8425 60.4394C39.2233 65.8347 43.1258 69.1096 47.6251 77.5062C47.8537 77.9329 43.5296 89.6565 44.2548 92.8968C44.3967 93.5304 34.081 91.0472 23.5979 87.1775C23.0142 86.962 11.0578 72.4329 10.4847 71.5328Z" stroke="#333B2B" stroke-width="5" stroke-linecap="square"/>
<path d="M103.624 82.3419C103.555 81.9152 115.283 61.8932 116.816 62.715C123.917 66.5229 135.425 67.6489 135.425 68.6884C135.425 77.5022 136.728 82.5235 131.42 90.5908C131.177 90.9605 124.383 100.237 119.407 98.5554C118.367 98.2039 104.889 90.1613 103.624 82.3419Z" stroke="#333B2B" stroke-width="5" stroke-linecap="square"/>
<path d="M86.6863 85.5604C86.8645 84.798 77.9744 72.7715 77.2949 73.2333C69.5489 78.4973 62.6387 76.419 57.367 84.1008C56.8806 84.8096 56.9933 106.88 57.367 107.747C61.3905 117.081 66.6053 116.374 77.2949 104.049C77.9994 103.237 83.5933 98.7981 86.6863 85.5604Z" stroke="#333B2B" stroke-width="5" stroke-linecap="square"/>
<path d="M59.5532 4.74718C67.151 -0.776576 83.4385 7.83515 83.9421 9.12579C84.509 10.5788 78.209 36.7233 65.8153 37.3816C55.59 37.9247 40.4379 38.7959 40.4379 37.3816C40.4379 35.9673 51.6338 30.7481 57.367 20.3919C60.1516 15.3618 58.4341 5.56077 59.5532 4.74718Z" stroke="#333B2B" stroke-width="5" stroke-linecap="square"/>
<path d="M54.2596 52.1799C56.3604 51.9472 58.5959 51.7933 60.9729 51.7352C60.7287 51.893 60.4164 52.0367 60.0423 52.1735C59.5576 52.3509 58.9278 52.5311 58.1257 52.7153C55.5212 53.3148 54.1804 54.3692 53.4814 55.3036C52.7764 56.2459 52.6735 57.151 52.6645 57.4912C52.6568 57.781 52.4734 58.039 52.234 58.1674C51.9873 58.2997 51.6407 58.2884 51.3735 58.0966L51.3903 58.1094C50.9427 57.7757 50.7421 57.105 50.7992 56.1026C50.8187 55.7481 50.9594 55.4133 51.1323 55.1219C51.3085 54.825 51.5431 54.5314 51.8025 54.2513C52.3211 53.6911 52.9889 53.1313 53.6336 52.641C53.8446 52.4805 54.0551 52.326 54.2596 52.1799Z" fill="#3B3635" stroke="#363130" stroke-width="1.25698" stroke-miterlimit="3.99393"/>
<path d="M40.6958 53.1898C40.755 53.2609 40.8169 53.3341 40.8808 53.4084C41.1309 53.699 41.419 54.0132 41.7137 54.2911C42.0009 54.562 42.3264 54.8291 42.651 54.9948C43.1962 55.2731 43.9935 55.5535 44.7715 55.7122C45.1626 55.792 45.5663 55.8448 45.9434 55.8463C46.3108 55.8477 46.7059 55.801 47.0444 55.6389C47.1761 55.5758 47.2998 55.5052 47.4046 55.4223C47.5023 55.3451 47.634 55.2181 47.7041 55.0278C47.7876 54.8009 47.7527 54.5685 47.6405 54.3858C47.5466 54.233 47.4181 54.1445 47.3404 54.0987C47.1826 54.0056 46.5882 53.902 46.4189 53.8872C46.3638 53.8823 46.311 53.8787 46.257 53.875C46.1454 53.8674 46.0288 53.8595 45.8763 53.8396C45.4202 53.78 44.8248 53.6545 44.2405 53.3952C43.6579 53.1367 43.1053 52.754 42.7016 52.1883C42.3374 51.6781 42.069 50.984 42.0373 50.0222C41.5554 51.0991 41.1089 52.155 40.6958 53.1898Z" fill="#403B3A" stroke="#363130" stroke-width="1.25698" stroke-miterlimit="3.99393"/>
<path d="M58.9883 68.141C58.8724 66.7892 58.3431 65.7978 57.5249 65.1445C56.7361 64.5147 56.4822 64.1887 55.9441 63.9121L53.5994 64.9804C54.2253 65.0298 55.9526 66.3325 56.3335 66.6366C56.6849 66.9173 57.008 67.3959 57.0858 68.304C57.2464 70.1777 56.3617 71.5691 55.3523 72.5417C54.8482 73.0274 53.9032 73.739 53.3779 73.9431C52.8857 74.1344 51.4197 74.4253 50.6107 74.618C48.9885 75.0044 47.0037 75.4602 45.5137 75.7482C44.1143 76.0187 43.2739 75.6787 42.9067 75.5588C42.6605 75.4784 41.8224 74.8238 41.4925 74.5187C40.8337 73.9093 39.9549 73.1094 39.0826 72.3547C37.9323 71.3593 37.407 70.5946 37.407 70.5946L36.0857 72.2881C36.0857 72.2881 37.2613 73.3037 37.8332 73.7986C38.6833 74.5342 39.545 75.3184 40.196 75.9205C40.5211 76.2211 41.1009 76.7898 41.303 76.955C41.4965 77.1131 42.0087 77.4683 42.3868 77.5918C43.1419 77.8384 44.2524 77.9368 45.876 77.623C47.409 77.3266 49.4276 76.8627 51.0532 76.4755L51.1043 76.4633C51.9365 76.2652 53.562 75.8781 54.1023 75.6041C54.654 75.3244 56.049 74.5219 56.6772 73.9167C57.9322 72.7074 59.2151 70.7869 58.9883 68.141Z" fill="#433E3D" stroke="#363130" stroke-width="1.25698" stroke-miterlimit="3.99393" stroke-linecap="round"/>
<path d="M68.3927 30.3904C68.3927 30.3904 56.247 29.7576 51.2933 30.5668C50.9957 30.6177 50.6854 30.5942 50.386 30.5C50.0393 30.3985 49.484 30.2408 48.6492 30.0161C46.8616 29.5485 46.1649 29.9969 46.1649 29.9969C46.1649 29.9969 44.2179 30.2535 44.6558 31.9627C45.0937 33.6719 51.0251 31.6847 51.0251 31.6847L67.9038 33.5753L68.3927 30.3904Z" fill="#403B3A" stroke="#363130" stroke-width="1.25698" stroke-miterlimit="3.99393" stroke-linecap="round"/>
<path d="M39.2933 21.0382C36.1689 20.832 32.6354 20.5871 29.3869 20.3577C30.2043 20.0909 32.4139 19.3407 33.2192 18.7756L36.3108 19.4962C36.3108 19.4962 37.5339 18.1393 39.2208 18.9982C39.9928 19.3942 39.7622 20.2426 39.2933 21.0382Z" fill="#524A48" stroke="#363130" stroke-width="1.25698" stroke-miterlimit="3.99393" stroke-linecap="round"/>
<path d="M65.9769 33.0645L57.1467 32.3852L55.2129 44.9831C55.2129 44.9831 86.4406 48.8831 89.0043 47.7553L89.8924 41.97L67.0297 39.263C67.0297 39.263 64.8287 39.6012 65.9769 33.0645Z" fill="#5D5655" stroke="#363130" stroke-width="2.51" stroke-miterlimit="3.99393" stroke-linecap="round"/>
<path d="M58.1885 43.5318C58.4882 43.5778 58.7684 43.3721 58.8144 43.0725C58.8604 42.7728 58.6548 42.4926 58.3551 42.4466C58.0554 42.4006 57.7752 42.6062 57.7292 42.9059C57.6832 43.2056 57.8889 43.4858 58.1885 43.5318Z" fill="#7E7472"/>
<path d="M63.6594 43.2859C64.0503 43.3459 64.4158 43.0776 64.4758 42.6867C64.5358 42.2959 64.2676 41.9304 63.8767 41.8704C63.4858 41.8104 63.1203 42.0786 63.0603 42.4695C63.0003 42.8603 63.2685 43.2259 63.6594 43.2859Z" fill="#252322"/>
<path d="M82.9647 41.6915C82.8468 41.6766 82.7257 41.6636 82.6013 41.6527C82.6013 41.6527 81.2275 46.9734 75.7154 47.1479L73.9037 47.0306C74.5523 47.1302 75.1552 47.1656 75.7154 47.1479L86.9586 47.8755C86.9586 47.8755 88.6967 42.7115 83.4116 41.7596L82.9647 41.6915Z" fill="#585150"/>
<path d="M75.7154 47.1479C81.2275 46.9734 82.6013 41.6527 82.6013 41.6527C82.7257 41.6636 82.8468 41.6766 82.9647 41.6915L83.4116 41.7596C88.6967 42.7115 86.9586 47.8755 86.9586 47.8755L75.7154 47.1479ZM75.7154 47.1479L73.9037 47.0306M75.7154 47.1479C75.1552 47.1656 74.5523 47.1302 73.9037 47.0306M73.9037 47.0306L74.5475 47.1294" stroke="#363130" stroke-width="1.25698" stroke-miterlimit="3.99393" stroke-linecap="round"/>
<path d="M68.5079 29.6365L67.0304 39.262C65.1286 39.0667 65.3367 37.2391 65.8763 33.7239C66.4158 30.2089 68.5079 29.6365 68.5079 29.6365Z" fill="#484342" stroke="#363130" stroke-width="1.25698"/>
<path d="M124.341 20.2804C124.341 20.2804 123.709 18.2055 120.179 17.767C116.65 17.3284 114.818 17.1728 114.677 19.0794C114.536 20.986 106.422 104.086 106.422 104.086C106.422 104.086 109.087 105.86 113.267 104.936L124.341 20.2804Z" fill="#514B49" stroke="#363130" stroke-width="2.51" stroke-miterlimit="3.99393" stroke-linecap="round"/>
<path fill-rule="evenodd" clip-rule="evenodd" d="M50.2291 32.3116C53.3156 31.5538 56.5314 32.3131 56.5314 32.3131L57.1484 32.3836L55.2146 44.9816C47.5176 44.3466 41.1217 44.7884 35.8668 45.795L35.9412 41.801L31.2323 44.602L30.9323 43.0286L28.4847 45.7754L25.9666 43.4106L24.9046 49.2426C17.8665 52.5038 15.0313 56.3203 15.0313 56.3203C15.0313 56.3203 13.0324 58.6456 6.85137 57.6968C0.670373 56.748 1.61452 52.9569 1.61452 52.9569C5.48126 41.4526 21.3127 37.5802 21.3127 37.5802C21.3127 37.5802 47.1427 33.0693 50.2291 32.3116Z" fill="#5C342B"/>
<path d="M8.52732 43.783C12.9171 38.7822 25.951 36.7744 25.951 36.7744C36.4514 33.9672 39.6664 37.7206 39.6192 37.7134L32.4021 42.2561L34.0593 42.9215L31.2319 44.6033L30.932 43.0299L28.4844 45.7768L25.9663 43.412L24.8929 49.3062C24.1202 49.6311 23.3857 49.973 22.711 50.3309C16.6385 53.5521 8.52732 43.783 8.52732 43.783Z" fill="#5C3B2B"/>
<path d="M35.8631 45.9806C38.138 45.4634 39.7034 45.1879 39.7034 45.1879L35.9062 43.6632L35.8631 45.9806Z" fill="#5C3B2B"/>
<path d="M8.52732 43.783C12.9171 38.7822 25.951 36.7744 25.951 36.7744C36.4514 33.9672 39.6664 37.7206 39.6192 37.7134L32.4021 42.2561L34.0593 42.9215L31.2319 44.6033L30.932 43.0299L28.4844 45.7768L25.9663 43.412L24.8929 49.3062C24.1202 49.6311 23.3857 49.973 22.711 50.3309C16.6385 53.5521 8.52732 43.783 8.52732 43.783Z" stroke="#452D21" stroke-width="1.25698" stroke-miterlimit="3.99393" stroke-linecap="round"/>
<path d="M35.8631 45.9806C38.138 45.4634 39.7034 45.1879 39.7034 45.1879L35.9062 43.6632L35.8631 45.9806Z" stroke="#452D21" stroke-width="1.25698" stroke-miterlimit="3.99393" stroke-linecap="round"/>
<path d="M56.5314 32.3131L56.243 33.5345L56.3151 33.5515L56.3888 33.56L56.5314 32.3131ZM50.2291 32.3116L49.9299 31.0928L49.9299 31.0928L50.2291 32.3116ZM57.1484 32.3836L58.3888 32.5741L58.5867 31.285L57.291 31.1368L57.1484 32.3836ZM55.2146 44.9816L55.1114 46.2323L56.2775 46.3285L56.4551 45.172L55.2146 44.9816ZM35.8668 45.795L34.612 45.7716L34.5832 47.3187L36.1029 47.0276L35.8668 45.795ZM35.9412 41.801L37.196 41.8244L37.238 39.5694L35.2996 40.7224L35.9412 41.801ZM31.2323 44.602L29.9995 44.837L30.3348 46.596L31.8738 45.6806L31.2323 44.602ZM30.9323 43.0286L32.1651 42.7935L31.6885 40.2935L29.9953 42.1936L30.9323 43.0286ZM28.4847 45.7754L27.6255 46.6902L28.5646 47.5722L29.4217 46.6103L28.4847 45.7754ZM25.9666 43.4106L26.8257 42.4958L25.145 40.9173L24.7319 43.1857L25.9666 43.4106ZM24.9046 49.2426L25.4322 50.3813L26.0227 50.1077L26.1393 49.4674L24.9046 49.2426ZM15.0313 56.3203L15.983 57.1385L16.0121 57.1046L16.0388 57.0687L15.0313 56.3203ZM6.85137 57.6968L7.04178 56.4563L6.85137 57.6968ZM1.61452 52.9569L0.424918 52.5571L0.408882 52.6048L0.396718 52.6536L1.61452 52.9569ZM21.3127 37.5802L21.0968 36.3439L21.0554 36.3511L21.0145 36.3611L21.3127 37.5802ZM56.5314 32.3131C56.8198 31.0917 56.8195 31.0916 56.8192 31.0915C56.8191 31.0915 56.8188 31.0914 56.8186 31.0914C56.8181 31.0913 56.8176 31.0912 56.8171 31.091C56.816 31.0908 56.8147 31.0905 56.8132 31.0901C56.8102 31.0894 56.8065 31.0886 56.8019 31.0875C56.7928 31.0855 56.7807 31.0827 56.7655 31.0794C56.7352 31.0726 56.6929 31.0635 56.6394 31.0526C56.5325 31.0306 56.3807 31.0012 56.1906 30.969C55.8111 30.9046 55.2755 30.8281 54.6377 30.7772C53.3742 30.6762 51.6516 30.6701 49.9299 31.0928L50.5283 33.5304C51.8931 33.1953 53.3216 33.19 54.4377 33.2792C54.9896 33.3233 55.4509 33.3893 55.7707 33.4436C55.9303 33.4707 56.0539 33.4947 56.1349 33.5113C56.1754 33.5196 56.2052 33.5261 56.2235 33.5301C56.2326 33.5321 56.2389 33.5336 56.2422 33.5343C56.2438 33.5347 56.2447 33.5349 56.2449 33.5349C56.2449 33.535 56.2448 33.5349 56.2445 33.5349C56.2444 33.5348 56.2442 33.5348 56.2439 33.5347C56.2438 33.5347 56.2436 33.5346 56.2435 33.5346C56.2433 33.5346 56.243 33.5345 56.5314 32.3131ZM57.291 31.1368L56.674 31.0662L56.3888 33.56L57.0058 33.6305L57.291 31.1368ZM56.4551 45.172L58.3888 32.5741L55.9079 32.1932L53.9741 44.7911L56.4551 45.172ZM36.1029 47.0276C41.2383 46.0438 47.5196 45.606 55.1114 46.2323L55.3178 43.7308C47.5155 43.0872 41.0051 43.5329 35.6307 44.5624L36.1029 47.0276ZM37.1216 45.8183L37.196 41.8244L34.6864 41.7776L34.612 45.7716L37.1216 45.8183ZM35.2996 40.7224L30.5907 43.5234L31.8738 45.6806L36.5828 42.8796L35.2996 40.7224ZM32.4651 44.367L32.1651 42.7935L29.6995 43.2636L29.9995 44.837L32.4651 44.367ZM29.9953 42.1936L27.5477 44.9405L29.4217 46.6103L31.8693 43.8635L29.9953 42.1936ZM29.3438 44.8606L26.8257 42.4958L25.1074 44.3254L27.6255 46.6902L29.3438 44.8606ZM24.7319 43.1857L23.6699 49.0178L26.1393 49.4674L27.2013 43.6354L24.7319 43.1857ZM15.0313 56.3203C16.0388 57.0687 16.0385 57.0691 16.0382 57.0695C16.0382 57.0696 16.0379 57.0699 16.0377 57.0701C16.0375 57.0705 16.0372 57.0708 16.037 57.0711C16.0366 57.0717 16.0363 57.072 16.0362 57.0721C16.0361 57.0723 16.0366 57.0716 16.0378 57.07C16.0403 57.0668 16.0455 57.06 16.0535 57.0498C16.0694 57.0294 16.0966 56.9952 16.1353 56.9482C16.2127 56.8543 16.3361 56.7096 16.5082 56.5224C16.8524 56.148 17.3911 55.6039 18.1455 54.9573C19.6535 53.6645 22.0255 51.9598 25.4322 50.3813L24.3769 48.1039C20.7455 49.7866 18.181 51.6208 16.5119 53.0516C15.6776 53.7667 15.0677 54.3806 14.6604 54.8237C14.4567 55.0453 14.3036 55.2242 14.1985 55.3517C14.1459 55.4155 14.1053 55.4665 14.0763 55.5036C14.0618 55.5221 14.0502 55.5371 14.0415 55.5486C14.0371 55.5543 14.0335 55.5591 14.0306 55.563C14.0291 55.565 14.0278 55.5667 14.0267 55.5682C14.0261 55.5689 14.0256 55.5696 14.0252 55.5702C14.0249 55.5706 14.0246 55.571 14.0245 55.5711C14.0242 55.5715 14.0239 55.5719 15.0313 56.3203ZM6.66096 58.9373C9.92726 59.4386 12.189 59.089 13.6881 58.5438C14.4349 58.2722 14.9788 57.9569 15.3526 57.6895C15.539 57.5562 15.6819 57.4356 15.7856 57.3397C15.8374 57.2918 15.8794 57.25 15.9121 57.216C15.9285 57.199 15.9425 57.1839 15.9543 57.1709C15.9602 57.1644 15.9655 57.1584 15.9703 57.153C15.9727 57.1503 15.9749 57.1478 15.9771 57.1453C15.9781 57.1441 15.9791 57.1429 15.9801 57.1418C15.9806 57.1412 15.9813 57.1404 15.9816 57.1401C15.9823 57.1393 15.983 57.1385 15.0313 56.3203C14.0796 55.5022 14.0803 55.5014 14.081 55.5006C14.0812 55.5004 14.0819 55.4996 14.0823 55.4991C14.0832 55.4981 14.084 55.4971 14.0849 55.4962C14.0865 55.4943 14.088 55.4926 14.0894 55.491C14.0922 55.4878 14.0946 55.4852 14.0965 55.4831C14.1004 55.4788 14.1024 55.4767 14.1026 55.4765C14.1031 55.476 14.0961 55.4833 14.0812 55.4971C14.0514 55.5247 13.9898 55.5783 13.8922 55.6482C13.698 55.7871 13.356 55.9938 12.8303 56.1849C11.7847 56.5652 9.95648 56.9037 7.04178 56.4563L6.66096 58.9373ZM1.61452 52.9569C0.396718 52.6536 0.396478 52.6546 0.396236 52.6556C0.39615 52.6559 0.395904 52.6569 0.395733 52.6576C0.395391 52.659 0.395036 52.6604 0.394669 52.662C0.393933 52.665 0.393147 52.6683 0.392314 52.6718C0.390649 52.6789 0.388795 52.687 0.38679 52.696C0.38278 52.7141 0.378151 52.7361 0.373186 52.7618C0.363269 52.8131 0.351943 52.8797 0.341537 52.9595C0.320794 53.1188 0.303276 53.3345 0.308873 53.5914C0.320047 54.1044 0.424076 54.8 0.793999 55.5352C1.56757 57.0725 3.30602 58.4223 6.66096 58.9373L7.04178 56.4563C4.21573 56.0225 3.33575 55.0024 3.03614 54.4069C2.86948 54.0757 2.82323 53.7642 2.81828 53.5368C2.81581 53.4235 2.82377 53.3355 2.83051 53.2838C2.83385 53.2581 2.83677 53.2423 2.83767 53.2376C2.83811 53.2353 2.83803 53.2359 2.83721 53.2396C2.8368 53.2415 2.83621 53.2441 2.83541 53.2475C2.835 53.2492 2.83455 53.2511 2.83403 53.2532C2.83378 53.2543 2.83351 53.2554 2.83322 53.2566C2.83308 53.2571 2.83286 53.258 2.83278 53.2583C2.83256 53.2593 2.83232 53.2602 1.61452 52.9569ZM21.3127 37.5802C21.0145 36.3611 21.0141 36.3612 21.0136 36.3614C21.0134 36.3614 21.0128 36.3616 21.0123 36.3617C21.0113 36.3619 21.0101 36.3622 21.0086 36.3626C21.0057 36.3633 21.0018 36.3643 20.997 36.3655C20.9873 36.3679 20.9739 36.3713 20.9567 36.3757C20.9225 36.3844 20.8735 36.3971 20.8106 36.4139C20.685 36.4474 20.5037 36.4972 20.2738 36.5642C19.8141 36.6982 19.1587 36.9012 18.3626 37.181C16.7726 37.7397 14.609 38.6086 12.3158 39.851C7.76921 42.3142 2.50847 46.3581 0.424918 52.5571L2.80412 53.3567C4.58732 48.0514 9.17568 44.4069 13.5115 42.0579C15.6596 40.8941 17.6954 40.0759 19.1947 39.549C19.9432 39.286 20.5549 39.0967 20.976 38.9739C21.1865 38.9126 21.3492 38.868 21.4573 38.8391C21.5114 38.8247 21.5518 38.8143 21.5777 38.8077C21.5906 38.8044 21.5999 38.802 21.6055 38.8006C21.6083 38.7999 21.6101 38.7995 21.611 38.7992C21.6115 38.7991 21.6117 38.7991 21.6117 38.7991C21.6117 38.7991 21.6115 38.7991 21.6115 38.7991C21.6112 38.7992 21.6109 38.7993 21.3127 37.5802ZM49.9299 31.0928C48.4376 31.4592 41.2683 32.7664 34.3928 33.9946C30.9726 34.6056 27.6485 35.1929 25.1793 35.6275C23.9448 35.8448 22.9241 36.024 22.212 36.1487C21.856 36.2111 21.5771 36.2599 21.3873 36.2931C21.2924 36.3097 21.2198 36.3224 21.1709 36.331C21.1464 36.3353 21.1279 36.3385 21.1155 36.3407C21.1093 36.3417 21.1046 36.3426 21.1015 36.3431C21.0999 36.3434 21.0988 36.3436 21.098 36.3437C21.0976 36.3438 21.0973 36.3438 21.0971 36.3439C21.0969 36.3439 21.0968 36.3439 21.3127 37.5802C21.5286 38.8165 21.5287 38.8165 21.5289 38.8164C21.5291 38.8164 21.5294 38.8164 21.5298 38.8163C21.5306 38.8161 21.5318 38.8159 21.5334 38.8157C21.5365 38.8151 21.5412 38.8143 21.5474 38.8132C21.5599 38.811 21.5785 38.8078 21.603 38.8035C21.652 38.7949 21.7248 38.7822 21.8198 38.7656C22.0099 38.7323 22.289 38.6835 22.6453 38.6211C23.3578 38.4962 24.3792 38.317 25.6144 38.0995C28.0849 37.6647 31.4112 37.077 34.8342 36.4655C41.6453 35.2488 48.9342 33.9218 50.5283 33.5304L49.9299 31.0928Z" fill="#462720"/>
<rect x="68.4131" y="47.9922" width="7.84277" height="1.43" transform="rotate(10.7017 68.4131 47.9922)" fill="#7E7472" stroke="#363130" stroke-width="1.26"/>
<path d="M105.362 69.1324C104.814 81.6751 104.455 94.2031 105.072 96.4921C105.072 96.4921 105.604 99.7571 106.534 95.9523L109.862 69.1705L108.508 70.1052L107.439 70.3225L106.461 68.6092L105.362 69.1324Z" fill="#5C342B"/>
<path d="M103.972 58.8607L105.248 59.8993L105.756 60.8648L104.385 62.2836L105.195 63.1923C91.6697 66.5008 78.0623 69.5911 78.0623 69.5911L77.0325 63.2055L103.972 58.8607Z" fill="#5C342B"/>
<path d="M105.207 61.4343L104.385 62.2841L105.021 62.9978L87.6866 67.2141L84.2859 64.7164L105.207 61.4343Z" fill="#5C3B2B" stroke="#342118" stroke-width="1.26"/>
<path d="M105.6 69.0195L104.778 87.2894L107.049 69.635L106.463 68.6087L105.6 69.0195Z" fill="#5C3B2B" stroke="#362219" stroke-width="1.25698" stroke-miterlimit="3.99393" stroke-linecap="round"/>
<path d="M105.362 69.1324C104.814 81.6751 104.455 94.2031 105.072 96.4921C105.072 96.4921 105.604 99.7571 106.534 95.9523L109.862 69.1705L108.508 70.1052L107.439 70.3225L106.461 68.6092L105.362 69.1324Z" stroke="#462720" stroke-width="2.51" stroke-miterlimit="3.99393" stroke-linecap="round"/>
<path d="M103.972 58.8607L105.248 59.8993L105.756 60.8648L104.385 62.2836L105.195 63.1923C91.6697 66.5008 78.0623 69.5911 78.0623 69.5911L77.0325 63.2055L103.972 58.8607Z" stroke="#462720" stroke-width="2.51"/>
<path d="M48.1814 112.982L71.6736 102.377L80.2293 71.1357L74.1728 79.0936L71.1225 68.2979L63.5163 76.5995L57.4068 97.0743L48.1814 112.982Z" fill="#DF4F20"/>
<path d="M71.6736 102.377L69.4215 106.793V111.144L80.6414 101.811L78.9617 111.7L92.3423 87.3332L84.9477 86.629L86.9196 73.1075L80.2293 81.7697V71.1357L71.6736 102.377Z" fill="#E4D3CD"/>
<path fill-rule="evenodd" clip-rule="evenodd" d="M101.081 55.7499L106.143 65.1959L131.442 81.981L136.936 84.4561L126.182 51.2156L123.444 59.428L113.277 43.5899L103.304 37.8953V51.2156L101.081 55.7499Z" fill="#DF4F20"/>
<path d="M115.427 95.797L116.601 84.4561L121.098 87.1936L124.617 80.5455L130.335 88.0688L131.442 81.981L106.143 65.1959V74.8279L115.427 95.797Z" fill="#E4D3CD"/>
<path fill-rule="evenodd" clip-rule="evenodd" d="M47.494 30.6074L27.2998 60.5109L39.5702 55.7499L34.069 62.4508L41.4014 60.5109V64.8499L62.1526 31.404L48.1814 40.7187L47.494 30.6074Z" fill="#DF4F20"/>
<path d="M41.4014 64.8499L74.1481 37.8953L68.8737 38.7173V32.6734L62.1526 31.404L41.4014 64.8499Z" fill="#E4D3CD"/>
<path d="M41.4014 64.8499V60.5109L34.069 62.4508L39.5702 55.7499L27.2998 60.5109L47.494 30.6074L48.1814 40.7187L62.1526 31.404M41.4014 64.8499L74.1481 37.8953L68.8737 38.7173V32.6734L62.1526 31.404M41.4014 64.8499L62.1526 31.404M131.442 81.981L136.936 84.4561L126.182 51.2156L123.444 59.428L113.277 43.5899L103.304 37.8953V51.2156L101.081 55.7499L106.143 65.1959M131.442 81.981L130.335 88.0688L124.617 80.5455L121.098 87.1936L116.601 84.4561L115.427 95.797L106.143 74.8279V65.1959M131.442 81.981L106.143 65.1959M71.6736 102.377L48.1814 112.982L57.4068 97.0743L63.5163 76.5995L71.1225 68.2979L74.1728 79.0936L80.2293 71.1357M71.6736 102.377L69.4215 106.793V111.144L80.6414 101.811L78.9617 111.7L92.3423 87.3332L84.9477 86.629L86.9196 73.1075L80.2293 81.7697V71.1357M71.6736 102.377L80.2293 71.1357" stroke="#542212" stroke-width="5" stroke-linecap="square"/>
</svg>
