<svg width="97" height="79" viewBox="0 0 97 79" fill="none" xmlns="http://www.w3.org/2000/svg">
<path d="M6.17752 39.7164C5.28991 38.9816 24.7857 32.4622 37.6454 31.299C38.6248 31.2104 40.4649 46.9609 41.1913 47.2736C51.6549 51.7788 68.8655 56.4285 68.7134 57.133C66.7529 66.2147 49.1615 76.1983 47.4843 75.1351C46.6288 74.5928 38.46 70.2561 32.4286 68.428C23.8663 65.8326 24.7136 50.9805 24.6261 50.1504C24.1812 45.9293 7.0644 40.4505 6.17752 39.7164Z" fill="#3B4332" stroke="#333B2B" stroke-width="5" stroke-linecap="square"/>
<path d="M23.2431 11.3801C22.3285 10.7608 44.7246 4.25392 45.8471 4.4567C48.962 5.01946 42.9551 12.9854 43.2908 13.4011C45.8317 16.5481 51.1621 18.2313 50.7896 18.3768C50.0589 18.6621 41.2843 23.6083 36.3487 20.9853C29.5981 17.3978 28.1116 14.6768 23.2431 11.3801Z" fill="#3B4332" stroke="#333B2B" stroke-width="5" stroke-linecap="square"/>
<path d="M91.446 43.5922C92.3299 44.5649 71.0702 50.1251 69.9938 49.8927C57.1012 47.1095 57.8059 33.5202 53.2016 23.4413C52.7962 22.5538 63.401 20.9786 68.4888 15.1694C73.1497 9.8476 79.2408 17.7361 84.7004 27.1881C88.1746 33.2028 86.0071 37.6068 91.446 43.5922Z" fill="#3B4332" stroke="#333B2B" stroke-width="5" stroke-linecap="square"/>
</svg>
