<svg width="93" height="79" viewBox="0 0 93 79" fill="none" xmlns="http://www.w3.org/2000/svg">
<path d="M53.6475 23.4276L71.0158 11.2877V3.69389L59.5208 6.68503L47.1898 1.85352L39.8007 11.2877L43.6369 18.4198L53.6475 23.4276Z" fill="#E5E0DB"/>
<path d="M49.1349 61.4035L35.7848 51.1155L27.2063 58.2541L15.1875 59.9338L19.8171 70.6417L30.2538 77.3603L44.3668 73.5811L49.1349 61.4035Z" fill="#E5E0DB"/>
<path d="M56.7666 57.3352L66.2043 49.9279L69.5023 57.3352L75.1453 63.2343L69.5023 68.885L53.9518 66.1508L56.7666 57.3352Z" fill="#E5E0DB"/>
<path d="M38.4151 28.2506L50.2229 34.8326L58.2461 39.4023L49.5819 43.4908L43.6369 47.2244L36.1138 42.5326L38.4151 28.2506Z" fill="#E5E0DB"/>
<path d="M62.4754 28.2506L82.7484 48.7284L86.5104 39.2948L90.8994 31.0116L80.8641 26.1798L79.2747 14.4447L62.4754 28.2506Z" fill="#E5E0DB"/>
<path d="M12.8289 20.1175V28.7013L2.04297 33.9947L7.371 41.0931L15.9494 39.0224V43.8542L27.9682 45.1536L32.0617 33.2711L22.7053 29.7027L12.8289 20.1175Z" fill="#E5E0DB"/>
<path d="M53.6475 23.4276L71.0158 11.2877V3.69389L59.5208 6.68503L47.1898 1.85352L39.8007 11.2877L43.6369 18.4198L53.6475 23.4276Z" stroke="#3B332B" stroke-width="2"/>
<path d="M49.1349 61.4035L35.7848 51.1155L27.2063 58.2541L15.1875 59.9338L19.8171 70.6417L30.2538 77.3603L44.3668 73.5811L49.1349 61.4035Z" stroke="#3B332B" stroke-width="2"/>
<path d="M56.7666 57.3352L66.2043 49.9279L69.5023 57.3352L75.1453 63.2343L69.5023 68.885L53.9518 66.1508L56.7666 57.3352Z" stroke="#3B332B" stroke-width="2"/>
<path d="M38.4151 28.2506L50.2229 34.8326L58.2461 39.4023L49.5819 43.4908L43.6369 47.2244L36.1138 42.5326L38.4151 28.2506Z" stroke="#3B332B" stroke-width="2"/>
<path d="M62.4754 28.2506L82.7484 48.7284L86.5104 39.2948L90.8994 31.0116L80.8641 26.1798L79.2747 14.4447L62.4754 28.2506Z" stroke="#3B332B" stroke-width="2"/>
<path d="M12.8289 20.1175V28.7013L2.04297 33.9947L7.371 41.0931L15.9494 39.0224V43.8542L27.9682 45.1536L32.0617 33.2711L22.7053 29.7027L12.8289 20.1175Z" stroke="#3B332B" stroke-width="2"/>
</svg>
