<svg width="137" height="136" viewBox="0 0 137 136" fill="none" xmlns="http://www.w3.org/2000/svg">
<path d="M84.0664 35.3105C81.9564 35.3116 79.9225 36.0987 78.3614 37.5182C76.8003 38.9377 75.824 40.8879 75.623 42.9883C71.6546 43.3938 67.9776 45.2567 65.3032 48.2165C62.6288 51.1762 61.147 55.0227 61.1445 59.0118C61.1445 61.1283 61.5613 63.2241 62.3713 65.1795C63.1813 67.135 64.3685 68.9118 65.8651 70.4084C67.3617 71.905 69.1385 73.0921 71.0939 73.9021C73.0494 74.712 75.1451 75.1289 77.2617 75.1289C79.3782 75.1289 81.474 74.712 83.4295 73.9021C85.3849 73.0921 87.1617 71.905 88.6583 70.4084C90.155 68.9118 91.3421 67.135 92.1521 65.1795C92.9621 63.2241 93.3789 61.1283 93.3789 59.0118C93.3782 55.6115 92.3022 52.2986 90.3047 49.5469C91.7498 47.98 92.5524 45.9266 92.5527 43.7949C92.5523 41.5445 91.6579 39.3865 90.0665 37.7954C88.475 36.2043 86.3168 35.3105 84.0664 35.3105Z" fill="#F1DF9F" stroke="#46390A" stroke-width="3.5" stroke-linecap="round" stroke-linejoin="round"/>
<path d="M25.7466 68.4147C25.1513 70.3947 25.0823 72.4957 25.5466 74.5106C26.0109 76.5254 26.9924 78.3844 28.3942 79.9042C27.4386 81.2489 26.7085 82.7404 26.2325 84.3199C25.6573 86.2298 25.4639 88.2343 25.6634 90.2188C25.8629 92.2034 26.4513 94.1293 27.3951 95.8864C28.3388 97.6436 29.6195 99.1977 31.1638 100.46C32.7082 101.722 34.486 102.668 36.3959 103.243C38.3059 103.818 40.3105 104.012 42.2952 103.812C44.28 103.613 46.206 103.024 47.9632 102.08C49.7205 101.136 51.2746 99.8552 52.5368 98.3106C53.799 96.766 54.7446 94.9879 55.3195 93.0778C56.3022 89.81 56.1558 86.3065 54.9039 83.132C53.6521 79.9576 51.3677 77.2972 48.419 75.5797C48.4552 75.4778 48.49 75.3753 48.5234 75.2725C48.9738 73.7768 49.1252 72.207 48.9689 70.6528C48.8126 69.0986 48.3516 67.5905 47.6125 66.2144C46.8733 64.8384 45.8703 63.6213 44.6608 62.6329C43.4512 61.6445 42.0588 60.904 40.5631 60.4537C37.5426 59.5447 34.2848 59.8728 31.5061 61.3657C28.7275 62.8586 26.656 65.3943 25.7466 68.4147Z" fill="#F1DF9F" stroke="#46390A" stroke-width="3.5" stroke-linecap="round" stroke-linejoin="round"/>
<path d="M32.3351 131.11C36.6004 131.11 40.058 127.652 40.058 123.387C40.058 119.122 36.6004 115.664 32.3351 115.664C28.0699 115.664 24.6123 119.122 24.6123 123.387C24.6123 127.652 28.0699 131.11 32.3351 131.11Z" fill="#F1DF9F" stroke="#46390A" stroke-width="3.5" stroke-linecap="round" stroke-linejoin="round"/>
<path d="M12.0921 57.0026C17.3579 57.0026 21.6266 52.7339 21.6266 47.4681C21.6266 42.2024 17.3579 37.9336 12.0921 37.9336C6.82637 37.9336 2.55762 42.2024 2.55762 47.4681C2.55762 52.7339 6.82637 57.0026 12.0921 57.0026Z" fill="#F1DF9F" stroke="#46390A" stroke-width="3.5" stroke-linecap="round" stroke-linejoin="round"/>
<path d="M21.627 17.9859L33.6298 20.9369L28.695 23.2722L39.7258 24.9348L28.9727 28.5723L51.3204 24.7094L33.7362 32.3591L38.9129 32.6543L26.9722 37.9344L86.8218 21.8978L73.5087 21.8214L79.3013 15.3679L66.6295 17.3984L78.81 10.5537L67.069 9.28154L81.4767 1.94922L21.627 17.9859Z" fill="#785A2E" stroke="#302412" stroke-width="2" stroke-linecap="square"/>
<path d="M72.5195 98.873C70.5017 98.873 68.5037 99.2704 66.6394 100.043C64.7752 100.815 63.0814 101.947 61.6546 103.373C60.2278 104.8 59.096 106.494 58.3239 108.358C57.5517 110.222 57.1543 112.22 57.1543 114.238C57.1543 116.256 57.5516 118.254 58.3238 120.118C59.096 121.983 60.2278 123.676 61.6546 125.103C63.0814 126.53 64.7752 127.662 66.6394 128.434C68.5037 129.206 70.5017 129.604 72.5195 129.604C74.5539 129.601 76.5675 129.194 78.4434 128.406C79.1737 129.989 80.3418 131.329 81.8096 132.269C83.2775 133.208 84.9837 133.708 86.7266 133.709C87.9253 133.709 89.1122 133.473 90.2197 133.014C91.3271 132.555 92.3334 131.883 93.1809 131.035C94.0285 130.187 94.7007 129.181 95.1593 128.073C95.6178 126.966 95.8537 125.779 95.8535 124.58C95.8529 122.35 95.0359 120.197 93.5566 118.528C92.0773 116.859 90.0382 115.79 87.8242 115.521C87.8616 115.095 87.8812 114.667 87.8828 114.238C87.8829 110.163 86.2643 106.255 83.3832 103.374C80.5021 100.492 76.5943 98.8735 72.5195 98.873Z" fill="#F1DF9F" stroke="#46390A" stroke-width="3.5" stroke-linecap="round" stroke-linejoin="round"/>
<path d="M44.8828 70.0352C44.8828 70.0352 61.2207 86.9588 60.3913 86.4472C59.5629 85.934 49.207 80.7838 49.207 80.7838L54.7881 87.8084C54.7881 87.8084 44.8335 82.4256 44.9269 82.9315C45.0203 83.4373 53.8079 89.9555 53.8079 89.9555L43.4535 85.8742L52.0346 93.6949L34.5566 87.9207L88.2147 118.9L73.8542 106.047L88.7439 111.484L75.1667 101.105L85.0334 104.856L78.297 97.5428C78.297 97.5428 88.36 102.613 90.0471 103.183C91.7343 103.754 86.0506 97.9103 86.0506 97.9103L98.5409 101.015L44.8828 70.0352Z" fill="#785A2E" stroke="#302412" stroke-width="2" stroke-linecap="square"/>
<path d="M43.3906 68.6859L62.7076 58.3846L53.4766 70.0491L63.778 62.7778L53.9047 74.7862L72.5989 59.658L61.2824 73.8608C61.2824 73.8608 67.4167 69.8379 67.2017 70.306C66.9866 70.7739 57.9954 83.2908 57.9954 83.2908L101.808 39.4778L95.5688 40.0799L90.6135 43.5105L91.6038 40.4349C91.6038 40.4349 83.277 45.8766 82.914 46.1359C82.5512 46.3952 89.0031 36.351 89.0031 36.351C89.0031 36.351 85.0963 37.9038 84.7191 38.1298C84.3419 38.3558 87.9259 32.4896 87.9259 32.4896L83.831 32.2148L87.2036 24.873L43.3906 68.6859Z" fill="#785A2E" stroke="#302412" stroke-width="2" stroke-linecap="square"/>
<path d="M24.6123 47.0598L24.6125 63.9384L38.5907 72.0087L49.5418 53.0407L42.2272 45.7256L29.5937 38.4316L24.6123 47.0598Z" fill="#AA0000" stroke="#800000" stroke-width="3.5" stroke-linecap="square"/>
<path d="M116.149 83.1289L106.141 91.5045L112.402 127.299L124.74 116.974L130.738 100.562L116.149 83.1289Z" fill="#AA0000" stroke="#800000" stroke-width="3.5" stroke-linecap="round" stroke-linejoin="round"/>
<path d="M105.576 37.0965L91.9435 33.4338L84.1204 37.9424L93.6135 54.4144L110.085 44.9213L105.576 37.0965Z" fill="#AA0000" stroke="#800000" stroke-width="3.5" stroke-linecap="square"/>
</svg>
