<svg width="209" height="235" viewBox="0 0 209 235" fill="none" xmlns="http://www.w3.org/2000/svg">
<path d="M36.6384 98.5353L37.0018 98.6335L30.334 123.515L42.0786 135.259L73.9647 103.373L67.8866 92.8454L55.1076 80.0664L36.6384 98.5353Z" fill="#ECECEC" stroke="#5E5E5E" stroke-width="3.5" stroke-linecap="round" stroke-linejoin="round"/>
<path d="M52.95 56.332L63.3234 74.4338L51.9279 69.6708L65.6487 87.6377L50.5913 79.73L65.6564 96.7756L34.4551 74.4174L99.3029 137.829L98.8646 130.078L98.4225 121.924L105.293 123.714L104.506 114.1L117.798 119.744L52.95 56.332Z" fill="#785A2E" stroke="#302412" stroke-width="2" stroke-linecap="square"/>
<path d="M69.0068 178.616L89.1245 165.98L77.2706 180.862L99.839 163.039L92.4091 173.585L108.863 161.35L90.2974 181.456L93.3055 180.398L84.5174 190.404L159.756 126.701C159.756 126.701 129.973 148.994 129.542 149.36C129.11 149.725 148.958 127.608 148.958 127.608L130.82 138.838L142.761 126.027L126.432 135.158L144.245 114.912L69.0068 178.616Z" fill="#785A2E" stroke="#302412" stroke-width="2" stroke-linecap="square"/>
<path d="M95.0428 152.658L106.614 170.911L94.5041 164.076L111.824 185.298L97.7653 175.548L102.07 183.002L90.0377 175.301L79.1055 169.134L134.989 226.908L135.738 217.492L134.777 211.007L140.677 211.92L137.82 203.962L150.927 210.432L95.0428 152.658Z" fill="#785A2E" stroke="#302412" stroke-width="2" stroke-linecap="square"/>
<path d="M184.652 38.8535C181.534 38.8539 178.543 40.093 176.338 42.2984C174.133 44.5038 172.894 47.4947 172.895 50.6133C172.896 53.5381 173.988 56.3574 175.957 58.5206C177.925 60.6838 180.629 62.0357 183.541 62.3125C183.61 65.3835 184.877 68.3057 187.073 70.4541C189.268 72.6025 192.217 73.8065 195.289 73.8086C196.833 73.8087 198.363 73.5046 199.789 72.9136C201.216 72.3227 202.513 71.4564 203.605 70.3644C204.697 69.2724 205.563 67.976 206.154 66.5492C206.745 65.1224 207.049 63.5932 207.049 62.0488C207.049 59.1239 205.958 56.304 203.991 54.1397C202.023 51.9753 199.32 50.622 196.408 50.3437C196.338 47.2724 195.069 44.3506 192.872 42.2032C190.675 40.0559 187.724 38.8536 184.652 38.8535Z" fill="#F1DF9F" stroke="#46390A" stroke-width="3.5" stroke-linecap="square"/>
<path d="M45.3119 161.948C51.8063 161.948 57.071 156.683 57.071 150.189C57.071 143.694 51.8063 138.43 45.3119 138.43C38.8175 138.43 33.5527 143.694 33.5527 150.189C33.5527 156.683 38.8175 161.948 45.3119 161.948Z" fill="#F1DF9F" stroke="#46390A" stroke-width="3.5" stroke-linecap="square"/>
<path d="M85.6392 187.185C84.9337 181.365 79.9765 176.855 73.9662 176.855C67.4718 176.855 62.207 182.12 62.207 188.615C62.207 194.596 66.6724 199.534 72.4513 200.277C73.1569 206.097 78.1141 210.606 84.1244 210.606C90.6188 210.606 95.8835 205.341 95.8835 198.847C95.8835 192.866 91.4181 187.928 85.6392 187.185Z" fill="#F1DF9F" stroke="#46390A" stroke-width="3.5" stroke-linecap="square"/>
<path d="M119.559 127.801C118.465 127.801 117.414 128.229 116.631 128.993C115.848 129.756 115.394 130.795 115.365 131.889C114.161 131.486 112.9 131.281 111.631 131.281C108.512 131.282 105.522 132.521 103.317 134.726C101.112 136.931 99.8729 139.922 99.873 143.041C99.8734 146.159 101.112 149.15 103.317 151.355C105.522 153.56 108.513 154.798 111.631 154.799C114.749 154.799 117.74 153.56 119.946 151.355C122.151 149.15 123.39 146.16 123.391 143.041C123.39 140.476 122.552 137.981 121.002 135.937C121.809 135.642 122.506 135.106 122.999 134.401C123.491 133.696 123.756 132.858 123.756 131.998C123.756 130.885 123.314 129.817 122.527 129.03C121.739 128.243 120.672 127.801 119.559 127.801Z" fill="#F1DF9F" stroke="#46390A" stroke-width="3.5" stroke-linecap="square"/>
<path d="M151.762 88.6074C148.749 88.6081 145.793 89.1171 143.214 90.0795C140.635 91.0418 138.529 92.421 137.125 94.0684C136.231 93.8654 135.317 93.7626 134.4 93.7617C131.124 93.7617 127.981 95.0635 125.664 97.3806C123.347 99.6977 122.045 102.84 122.045 106.117C122.045 109.394 123.347 112.537 125.664 114.854C127.981 117.171 131.124 118.473 134.4 118.473C137.257 118.47 140.024 117.478 142.232 115.665C144.439 113.853 145.95 111.331 146.508 108.529C148.201 108.882 149.975 109.064 151.762 109.066C153.935 109.066 156.088 108.802 158.096 108.288C160.104 107.773 161.929 107.02 163.466 106.07C165.002 105.12 166.222 103.992 167.053 102.751C167.885 101.51 168.313 100.179 168.312 98.836C168.312 96.1232 166.568 93.5216 163.464 91.6034C160.361 89.6852 156.151 88.6075 151.762 88.6074Z" fill="#F1DF9F" stroke="#46390A" stroke-width="2" stroke-linecap="square"/>
<path d="M150.927 204.871C159.339 204.871 166.158 198.052 166.158 189.64C166.158 181.229 159.339 174.41 150.927 174.41C142.516 174.41 135.697 181.229 135.697 189.64C135.697 198.052 142.516 204.871 150.927 204.871Z" fill="#F1DF9F" stroke="#46390A" stroke-width="3.5" stroke-linecap="square"/>
<path d="M34.5573 12.0043C33.7426 13.3703 33.2746 14.9148 33.194 16.5032C33.1135 18.0916 33.4229 19.6756 34.0952 21.117C31.6739 22.5743 29.6448 24.6005 28.1839 27.0196C25.8202 30.9735 25.1239 35.7044 26.2483 40.1717C27.3727 44.6389 30.2256 48.4765 34.1794 50.8404C36.1372 52.011 38.3064 52.7846 40.5632 53.117C42.82 53.4493 45.1201 53.3338 47.3322 52.7772C49.5444 52.2205 51.6252 51.2336 53.4559 49.8727C55.2866 48.5118 56.8313 46.8037 58.0018 44.8458C59.3491 42.5875 60.1661 40.0527 60.391 37.4327C60.616 34.8126 60.2431 32.1757 59.3005 29.7207C60.1151 28.7614 60.8731 27.7004 61.5458 26.578C63.2142 23.7875 64.2601 20.7798 64.4533 18.2167C64.6465 15.6535 63.9713 13.7448 62.5762 12.9104C61.3871 12.2108 59.7565 12.3315 57.9483 13.2528C56.1401 14.1742 54.2599 15.8423 52.6118 17.9875C52.7992 16.145 52.4578 14.2873 51.6275 12.6318C50.7972 10.9764 49.5125 9.59185 47.9237 8.64025C46.8251 7.98351 45.608 7.54955 44.3417 7.36319C43.0755 7.17682 41.785 7.2417 40.5438 7.55409C39.3027 7.86648 38.1352 8.42028 37.108 9.18387C36.0809 9.94746 35.2141 10.9058 34.5573 12.0043Z" fill="#F1DF9F" stroke="#46390A" stroke-width="3.5" stroke-linecap="square"/>
<path d="M151.461 22.3666L72.5617 35.5893C67.1148 36.5022 63.4392 41.6578 64.3521 47.1047L72.6163 96.417C73.5291 101.864 78.6847 105.539 84.1316 104.627L163.031 91.4038C168.478 90.491 172.154 85.3354 171.241 79.8885L162.977 30.5762C162.064 25.1294 156.908 21.4538 151.461 22.3666Z" fill="#CCCCCC"/>
<path d="M150.238 30.1777L76.2691 42.574C73.5457 43.0304 71.7079 45.6082 72.1643 48.3316L79.6021 92.7127C80.0585 95.4361 82.6363 97.2739 85.3597 96.8175L159.328 84.4212C162.052 83.9648 163.889 81.387 163.433 78.6635L155.995 34.2825C155.539 31.559 152.961 29.7212 150.238 30.1777Z" fill="#E6E6E6"/>
<path d="M129.615 182.606L88.5367 141.528L111.591 118.473L51.9531 134.453L66.7138 160.019L97.8189 191.126L129.615 182.606Z" fill="#813627" stroke="#341610" stroke-width="3.5" stroke-linecap="square" stroke-linejoin="round"/>
<path d="M146.002 224.735L159.148 232.325L194.511 222.849L194.817 223.988L207.049 202.801L182.946 188.885L182.946 198.198L161.323 198.199L146.002 224.735Z" fill="#813627" stroke="#341610" stroke-width="3.5" stroke-linecap="round" stroke-linejoin="round"/>
<path d="M34.1635 169.086L21.2851 167.406L20.1191 176.343L25.4671 216.6L36.5707 218.048L45.6551 211.061L48.6697 187.945L34.1635 169.086Z" fill="#ECECEC" stroke="#5E5E5E" stroke-width="3.5" stroke-linecap="round" stroke-linejoin="round"/>
</svg>
